<?xml version="1.0" encoding="utf-8"?>
<!-- Generator: Adobe Illustrator 19.2.0, SVG Export Plug-In . SVG Version: 6.00 Build 0)  -->
<svg version="1.1" xmlns="http://www.w3.org/2000/svg" xmlns:xlink="http://www.w3.org/1999/xlink" x="0px" y="0px"
	 viewBox="0 0 470.3 467.7" style="enable-background:new 0 0 470.3 467.7;" xml:space="preserve">
<style type="text/css">
	.st0{fill:#BCBEC0;}
	.st1{fill:#999B9D;}
	.st2{fill:#C9CACC;}
	.st3{fill:#58595B;}
	.st4{fill:#7F8083;}
	.st5{fill:#EEECE1;}
	.st6{fill:#6D6E71;}
	.st7{fill:#D9DBDC;}
	.st8{fill:#CCECFC;}
	.st9{fill:none;stroke:#6D6E71;stroke-width:0.6236;stroke-miterlimit:10;stroke-dasharray:2.8347,1.1339;}
	.st10{fill:none;}
	.st11{fill:none;stroke:#6D6E71;stroke-width:0.6236;stroke-miterlimit:10;}
	.st12{fill:none;stroke:#00AEEF;stroke-width:0.3968;stroke-miterlimit:10;}
	.st13{fill:none;stroke:#00AEEF;stroke-width:0.4819;stroke-miterlimit:10;stroke-dasharray:2.8347,1.1339;}
	.st14{fill:none;stroke:#00AEEF;stroke-width:0.4819;stroke-miterlimit:10;}
	.st15{fill:#1C75BC;}
</style>
<g id="background_color">
	<g id="Israel">
		<g>
			<path class="st0" d="M318,453.2c-0.1-3.1-0.9-6.9-1.7-8.4c-1.1-2-6.1-9.1-7-10.4c-0.9-1.3-2-4.4-2.4-5.6c-0.4-1.2,1.2-5.8,1.6-7
				c0.4-1.2,3.3-5.6,3.3-5.6l0-0.1c-0.7,0.1-1.3,0.1-1.8,0.1c-1.1-0.2-0.5-0.9-0.5-2.5c0-1.6,0.5-1.6,1.2-2.6c0.7-1.1-0.2-2.1-0.7-3
				c-0.5-0.9-1.4-4.8-1.8-5.6c-0.3-0.9-1.8-5.3-1.9-6.9c-0.2-1.6,2.1-7.4,2.1-8.8c0-0.8-0.2-2.5-0.4-4.2c-0.2,0-3.6,0.6-4.4,1.3
				c-0.8,0.8-5,6.1-6.6,7c-1.6,0.9-3.3,3.4-4.4,4c-1.1,0.5-5.8,3.3-5.8,3.3s-3.7,3.6-6.1,5.4c-2.4,1.9-4.6,1.7-5.7,1.7
				s-7,1.3-8.2,1.6c-1.2,0.3-4.8,0.8-6.6,0.8s-8.2,0-9,0.1c-0.8,0.1-3.7-0.3-4.1-0.4c-0.4-0.1-3,0-4,0.3c-0.9,0.3-8.6,2.2-9.9,2.4
				c-1.3,0.1-5.3-1.2-6.1-2.3c-0.8-1.1-2.3-2.2-2.8-3.6s-0.8-4.9-0.8-4.9s2.3-5.3,3-6.4c0.8-1.1,1.6-3.4,2.2-4.2
				c0.7-0.8,2.5-3.8,3-4.5c0.5-0.7,1.6-3.8,1.6-5.6c0-1.7,0-6.6,0-8.5c0-1.6,0.5-5.7,0.8-7.2c-0.1-0.3-0.3-1.5-0.3-2.4
				c0-1.1-1.6-2.5-2.6-3.2c-1.1-0.7-8.8-5.3-10.1-6.4c-1.2-1.1-0.3-2.8-0.3-3.9s-0.2-3-0.4-4.2c-0.2-1.2,1.2-5.3,1.6-6.2
				c0.4-0.9-0.2-3-0.3-3.9c-0.2-0.9-2.5-1.9-3.7-2.1c-1.2-0.2-1.2-1.6-1.4-3c-0.2-1.3-2.7-3.5-3.3-4c-1,1.1-2.4,2.9-2.7,3.3
				c-0.5,0.5-2.3,1.8-3.2,1.8c-0.9,0-2.6-0.5-3.2-1.6s-1.6-3.2-2.1-5.5c-0.5-2.3-4.2-1.4-5.8-0.9c-1.6,0.5,0,2.3,0.5,3
				c0.5,0.7-0.2,1.1-1.1,1.8c-0.9,0.7-2.1,0.7-3.2,0.7s-3.5-1.2-4.2-2.1c-0.7-0.9,1.4-1.8,1.6-2.6c0.2-0.9-0.3-3.2-0.2-4.4
				c0.2-1.2,2.6-0.7,3.7-1.1c1.1-0.3,0.5-2.1,0.4-3.2c-0.2-1.1,1.2-1.4,1.6-2.5c0.3-1.1-0.2-1.9-1.1-1.9c-0.9,0-2.3,0.2-3.5-0.2
				c-1.2-0.4-2.5-1.2-2.5-1.2c-0.3,0.9-0.7,1.7-1.1,2.4c-1.3,1.9-2.2,5.1-3.2,6.6c-1,1.4-4.2,9.3-5,11c-0.8,1.8-1,3.8-1.9,5.3
				c-1,1.4-2.9,4.3-3.5,5.3c-0.6,1-3.4,5.1-4.2,6.7c-0.8,1.6-1.3,4.3-2.4,5.4c-1.1,1.1-4.2,4.3-5,5.9c-0.7,1.4-2.4,5.4-3.3,7.2
				c0,0,9.3,7.9,9.8,9s1.1,2.4,0.3,3.4c-0.8,1.1-2.9,2.4-3.7,3.2c-0.8,0.8-5.6,3.2-6.4,4.5c-0.8,1.3-7.9,9-9.3,10.1
				c-1.3,1.1-11.6,10.9-11.4,13.5c0.3,2.6,2.4,12.7,0.5,13.5s-4.5,2.4-4.5,2.4l-1.6,4.5l-11.4,8.7c6.7,21.5,19.3,62.1,19.9,64.1
				c0.9,2.6,7.6,19.5,9.8,23.2c2.2,3.7,7.6,17.8,8.2,19.7c0.6,1.9,3.9,12.1,3.9,14.5c0,2.4-1.1,10.8-0.2,12.3
				c0.9,1.5,6.9,6.3,6.1,8.9c-0.9,2.6-2.6,8.2-2.6,10c0,1.7,0.4,4.3,0.4,4.3l11.9,8.2l16.9,49.4l5,14.5c0,0,1.7,3.7,1.5,5.4
				c-0.2,1.7-0.4,5,0,6.5c0.4,1.5,16.5,45.1,16.5,46.4c0,1.3-0.6,4.8-0.4,6.7c0.2,1.9,2.8,5.6,3.3,7.8c0.4,2.2,1.3,6.5,0.9,7.6
				c-0.4,1.1-1.7,3.7-1.7,3.7s2.2,12.4,3.5,14.7c1.3,2.4,3,5.8,3,7.6l0,0c1.7-0.4,1.6-0.9,2.8-2c1.3-1.1,2.2-3.4,2.7-4.5
				c0.5-1.1,2.1-2.5,2.9-2.9c0.7-0.4,1.4-2.3,1.8-2.9c0.4-0.5,1.6-0.2,3.2,0.5c-0.1-0.9-0.3-3.5-0.6-4.8c-0.4-1.7,0.6-5.9,1.3-7.6
				c0.6-1.7,3.7-4.1,3.7-4.1s0.2-3.7,0.2-5.2c0-1.5,0.9-3.3,1.7-5c0.9-1.7,0.2-6.9,0.2-8.7c0-1.7,1.5-3.7,2.2-4.8
				c0.6-1.1,1.3-4.6,1.5-6.1c0.2-1.5,3.9-10,4.6-12.4c0.6-2.4,0.4-8.9,0.4-10.4c0-1.5,0.4-9.1,0.4-10.2c0-1.1,0.9-2.2,2.4-4.1
				c1.5-1.9,0.9-8.7,1.1-10c0.2-1.3,2.8-7.8,4.3-10c1.5-2.2,6.7-8,7.2-12.4c0.4-4.3-2.6-11.7-2.8-13.9c-0.2-2.2-1.1-3.9-1.1-6.1
				c0-2.2,0.9-3.5,1.5-5.6c0.6-2.2,0.9-6.3,0.9-7.6c0-1.3,1.7-2.8,2.6-4.6c0.9-1.7,0.6-3.3,0.6-5.6c0-2.4-3.9-10.8-3.9-10.8h0
				c0.1-1.1,0.2-2.1,0.2-2.5c0-1.1,0.9-2.5,1.4-3.4c0.5-0.9,1.4-4.1,1.9-5.3c0.5-1.2,1.4-5.3,1.6-6.5c0.2-1.2,1.4-6.4,1.8-8.1
				c0.4-1.8,0.5-1.8,0.4-3.7c-0.2-1.9,0-3.5,0.7-4.8c0.7-1.2,4.4-8.5,4.8-9.4c0.4-0.9,3.2-6.9,3.9-7.9c0.7-1.1,1.4-2.5,2.8-4.6
				c1.4-2.1,2.3-6.2,2.6-7.9c0.3-1.8,0.5-5.3,1.1-6.4c0.5-1.1,2.8-3.9,3.7-4.9c0.9-1.1,1.8-2.5,2.6-3.7c0.9-1.2-0.5-4.6-0.9-6.4
				c-0.3-1.8,1.1-4.2,1.4-5.8c0.3-1.6,0.3-2.8,1.2-4.1c0.9-1.2,6.2-4.9,6.9-5.6c0.5-0.5,1.1-0.8,1.8-1c0.9-1,1.4-5,1.4-5l0-0.1
				l-7.3,1.1l-0.6-1.8c0,0,0.4-0.8,0.7-1.1c0.3-0.3,1-2.4,1.1-2.8c0.1-0.4,0-1.7,0-2.1c0-0.5,0.2-1.5,0-2c-0.2-0.5-0.5-1-0.9-1.5
				c-0.4-0.5-0.2-0.9-0.1-1.3c0.1-0.5,1.3-1.1,1.7-1.6c0.3-0.5,0.7-1.9,0.9-2.4c0.1-0.5,2.3-2.5,2.8-3c0.5-0.5,0.2-2.4,0-3
				c-0.2-0.6-1.2-3-1.2-3.5c-0.1-0.5-0.2-2.2-0.2-2.8c0-0.6-0.4-1.4-0.6-2.3c-0.2-0.9,0.1-1.9,0.1-2.4c0-0.5-0.5-1.5-0.9-1.8
				c-0.4-0.3-2-1-2.5-1.2c-0.5-0.2,0.1-3,0.1-3.7c0.1-0.7-0.7-2.2-0.8-2.6c-0.1-0.5-0.1-0.9-0.1-1.5c0-0.6-0.1-0.9-0.3-1.2
				c-0.1-0.3,0-1.3,0.1-1.9c0.1-0.5-1-1.7-1.1-2.1c-0.1-0.5,0.7-1.6,1-1.9c0.3-0.3,3.9-0.2,3.9-0.2c0.8,0.1,1.5,0.7,1.5,0.7
				s4.1,6,4.6,6.6c0.5,0.5,3.2,4.7,3.8,5.6c0.6,0.9,1.3,3.3,1.5,7c0.2,3.7-1.5,8.5-1.9,9.5l0,0c0.9-1.7,1.8-3.9,2.1-5.5
				C318,455.4,318,454.3,318,453.2z"/>
		</g>
		<g>
			<path class="st1" d="M279.1,328.1c-0.9-0.9-0.9-3.8-0.9-5c0-1.2-4.2-2.4-5.2-2.5c-0.9-0.1-6.5-1.1-7.9-1.3
				c-1.5-0.3-2.8-1.7-3.3-2.3c-0.4-0.4-2.5-1-3.9-1.4c-0.2-0.4-0.9-1.9-1.4-2.4c-0.5-0.5-1.3-2.1-2.4-2.1s-3.4,1.2-4.1,1.3
				c-0.7,0.1-3.6,3.3-4.4,4c-0.8,0.7-2.8,0.3-3.6,0.3s-1.6-1.1-1.7-1.9c-0.1-0.8,0.4-1.7,0.9-2l-4-1.5c-1.9,0.1-2.8,3-3.7,3.9
				c-0.9,0.9-2.6,0.5-3.7,0.5s-3,2.5-3.5,3.2c-0.5,0.7-3.2,2.3-4.2,2.8s-7.1,1.1-7.8,1.2c-0.2,0.1-0.6,0.4-1,0.8
				c0.5,0.5,3.1,2.7,3.3,4c0.2,1.4,0.2,2.8,1.4,3c1.2,0.2,3.5,1.2,3.7,2.1c0.2,0.9,0.7,3,0.3,3.9c-0.3,0.9-1.8,4.9-1.6,6.2
				c0.2,1.2,0.4,3.2,0.4,4.2s-0.9,2.8,0.3,3.9c1.2,1.1,9,5.6,10.1,6.4c1.1,0.7,2.6,2.1,2.6,3.2c0,0.9,0.3,2,0.3,2.4
				c0.1-0.3,0.1-0.5,0.1-0.6c0.3-0.7,2.5-1.6,3.2-2.4c0.7-0.8,1.7-4.2,2-5c0.3-0.8,2.8-2.6,3.3-3c0.5-0.4,11.5-7,12.4-7.5
				c0.9-0.5,1.2-2.4,1.9-3.3c0.7-0.9,2.6-1.1,3.2-1.5c0.5-0.4,1.5-2,2.1-3c0.7-1.1,1.6-0.5,2.6-0.5c1.1,0,3.6-2.2,4.4-2.8
				c0.8-0.5,4.5-0.4,5.4-0.4c0.9,0,1.7,0.4,3,0.8c1.3,0.4,2.2-0.7,3.2-1.5C282.1,331.4,280.1,329,279.1,328.1z"/>
		</g>
		<g>
			<path class="st1" d="M220.5,273.7c0.9,1.1,2.8,5.6,2.3,6.2c-0.5,0.5-4.9,2.6-5.6,2.3c-0.7-0.3-2.1-1.8-3-1.2
				c-0.9,0.5-5.6,3.4-8.3,3.2c-2.6-0.2-5.9-0.7-7.5-1.9c0.1-0.3,0.2-0.6,0.3-0.8c0.6-1.6,1.4-6.1,1.6-7.4c0.2-1.3,1-1.6,1.9-2.4
				c1-0.8,0.5-2.6,1-4.2c0.5-1.6,1.1-3.5,1.8-4.6c0.6-1.1,1.9-4.1,2.2-5.9c0.3-1.8,1.8-6.4,3-10.2c0-0.1,0.1-0.2,0.1-0.3
				c0.8,0,4.2-0.1,4.8,0.5c0.7,0.7,5.6,5.1,5.6,5.1s-0.3,1.1-0.3,2.1s0.3,2.6,0,3.5c-0.4,0.9-3.5,4.6-3.5,5.3c0,0.7-0.7,4.1,0,4.8
				C217.5,268.4,219.7,272.7,220.5,273.7z"/>
		</g>
		<g>
			<path class="st1" d="M244.6,223.2c0.5-0.7,0.8-6.5,0.8-6.5s2.6-0.5,3.7-1.2c1.1-0.7,0.1-4.8,0.1-6.5c0,0-3.3,0.4-4.7,0.2
				c-1.4-0.2-6-4.1-6-4.1s-6.4-0.3-7.9-0.2c-1.6,0.2-1.9,0.5-3,0.9c-1.1,0.3-2.8-0.9-3.7-1.2c-0.8-0.3-2.4-0.5-2.7-0.5
				c-0.7,1.1-1.7,2.6-1.9,3.6c-0.2,1.1-1.3,6.7-1.6,8c-0.3,1.3-1.3,5-1.6,6.2c-0.3,1.3-3.8,14.4-4,15.5c-0.2,1.1-0.6,5-1.8,8.8
				c0.8,0,4.2-0.1,4.8,0.5c0.7,0.7,5.6,5.1,5.6,5.1s-0.3,1.1-0.3,2.1s0.3,2.6,0,3.5c-0.4,0.9-3.5,4.6-3.5,5.3c0,0.7-0.7,4.1,0,4.8
				c0.7,0.7,2.8,4.9,3.7,6c0.9,1.1,2.8,5.6,2.3,6.2c-0.5,0.5-4.9,2.6-5.6,2.3c-0.7-0.3-2.1-1.8-3-1.2c-0.9,0.5-5.6,3.4-8.3,3.2
				c-2.6-0.2-5.9-0.7-7.5-1.9c-0.8,2.2-2.3,6.7-2.9,7.7c-0.6,1.1-1.3,4-1.9,5.1c-0.6,1.1-3.2,5.8-3.7,7.4c-0.3,1.1-0.8,3-1.4,4.7
				c0,0,1.2,0.9,2.5,1.2c1.2,0.3,2.6,0.2,3.5,0.2c0.9,0,1.4,0.9,1.1,1.9c-0.4,1.1-1.8,1.4-1.6,2.5c0.2,1.1,0.7,2.8-0.4,3.2
				c-1.1,0.3-3.5-0.2-3.7,1.1c-0.2,1.2,0.4,3.5,0.2,4.4c-0.2,0.9-2.3,1.8-1.6,2.6c0.7,0.9,3.2,2.1,4.2,2.1s2.3,0,3.2-0.7
				c0.9-0.7,1.6-1.1,1.1-1.8c-0.5-0.7-2.1-2.5-0.5-3c1.6-0.5,5.3-1.4,5.8,0.9c0.5,2.3,1.6,4.4,2.1,5.5s2.3,1.6,3.2,1.6
				c0.9,0,2.6-1.2,3.2-1.8c0.4-0.4,1.7-2.2,2.7-3.3c0.4-0.4,0.8-0.7,1-0.8c0.7-0.2,6.7-0.7,7.8-1.2s3.7-2.1,4.2-2.8
				c0.5-0.7,2.5-3.2,3.5-3.2s2.8,0.3,3.7-0.5c0.9-0.9,1.8-3.8,3.7-3.9l4,1.5c0.5-0.3,0.9-1.2,1.2-2c0.3-0.8,4.1,0.4,5.4,0.3
				c1.3-0.1,1.3-4.2,1.3-5c0-0.8-0.1-6.5-0.1-6.5s-4.6-4.5-5.2-4.9c-0.5-0.4-0.5-2-0.8-2.9c-0.3-0.9-1.6-2-1.6-2l-0.6,0
				c0.1-0.3,0.1-0.6,0.2-0.9c0.3-0.7,0.8-2.9,0.9-3.6c0.1-0.7-0.3-1.9-0.4-2.6c-0.1-0.8,1.1-2.6,1.3-3.6c0.3-0.9-0.4-6.9-0.4-7.9
				s-2.1-3-2.4-3.8c-0.3-0.8,0.5-2.9,1.2-3.4c0.7-0.5-1.2-3.7-1.6-5.2c-0.4-1.5,0.4-2.4,0.3-3.7c-0.1-1.3-2.6-0.9-2.6-0.9
				s-0.1-1.6-0.3-2.8c-0.1-1.2-1.3-2.3-1.7-3.6c-0.4-1.3,1.9-2.9,2.8-3.4c0.9-0.5,5.8-5,5.8-5l0.4-1.5c0,0,0.5,0,1.5-0.1
				c0.9-0.1,0.5-3.3,0.7-4.4c0.1-1.1-0.4-2.3-1.1-3.2c-0.7-0.9-1.2-0.8-1.6-1.1c-0.4-0.3-0.1-1.3,0.1-2.3
				C244.3,225.8,244.1,223.9,244.6,223.2z"/>
		</g>
		<g>
			<path class="st2" d="M266.2,175.6c1.2-0.3,2.1-1.4,2.6-1.9c0.5-0.5,1.8-1.8,2.1-0.7c0.3,1.1,0,2.6,1.2,2.8c1.2,0.2,3.7,0,4.1,1.8
				v0c-1.9,1.2-5.5,3.6-5.7,3.9c-0.4,0.4-2.1,2.8-2.5,3.6c-0.4,0.8-1.9,2.1-2.9,2.5c0,0-3.6,1.1-4.1,1.6c-0.5,0.5-0.8,1.2-1.6,1.5
				c-0.8,0.3-2.3,0.3-2.6,0.7c-0.4,0.4-4,4.6-4.2,5.7c-0.3,1.1-0.7,3.3-1.1,3.7c-0.4,0.4-1.1,1.6-0.8,2.1c0.3,0.5,0.8,2.1,0.8,2.1
				s-2.3,2.5-2.3,4.2c0,0-3.3,0.4-4.7,0.2c-1.4-0.2-6-4.1-6-4.1s-6.4-0.3-7.9-0.2c-1.6,0.2-1.9,0.5-3,0.9c-1.1,0.3-2.8-0.9-3.7-1.2
				c-0.8-0.3-2.4-0.5-2.7-0.5c0.1-0.1,0.1-0.2,0.2-0.4c0.6-1.1,0.3-3.7,0.2-4.8c-0.2-1.1,2.2-8.3,2.4-9.1c0.2-0.8,0.8-3.5,1.1-4.8
				c0.3-1.3,0.8-5,1.1-6.6c0.3-1.6,1.1-5.9,1.3-7c0.2-1.1,0.8-6.4,1.1-7.8c0.3-1.4,1-4.3,1.4-5.8c0.5-1.4,0-6.9,0-8.2
				c0-1.3,1-2.6,1.4-3.4c0.5-0.8,1.3-3.2,1.8-5.8c0.5-2.6-0.2-4.2,0.2-5.3c0.3-1.1,1-5.9,1.1-8c0.2-2.1-0.3-3.7,0.6-4.8
				c1-1.1,3.8-1.3,5-0.6c1.1,0.6,2.6,2.7,3.4,4c0.8,1.3,1.9-0.6,2.9-1.6c1-1,2.9-2.2,3.7-3c0.8-0.8,2.4-3.4,3.4-4.6
				c0.6-0.8,0.7-3.5,0.6-5.9l3.4,0.7c0,0,1.4,3.2,1.2,4.9c-0.2,1.8-0.7,3.2-0.7,3.2s3.7,1.1,4.6,1.6s3.4,1.9,3.2,2.8
				c-0.2,0.9-1.2,1.4-0.9,2.8c0.3,1.4,2.6,8.1,1.6,9.2s-3.2,3.4-3,4.2c0.2,0.9-0.2,4.8-0.2,5.8s-0.9,2.3-0.9,2.3l-3.2-2.5
				c0,0-0.2,4.2,0.7,6.7c0,0-4.2,2.5-4.8,3.7c-0.5,1.2-1.1,3.9-1.6,4.4s-1.9,0.3-2.8-0.5c-0.9-0.9-2.1-1.9-2.6-1.4s-2.1,1.8-0.9,2.5
				c1.2,0.7,2.8,1.6,3.4,2.3c0.5,0.7,1.4,2.5,0.2,2.5c-1.2,0-4.8-2.3-4.1-0.4c0.7,1.9,1.2,2.8,1.2,4.1c0,1.2,0.2,2.6,1.1,2.6
				c0.9,0,2.3,1.1,1.9,1.8c-0.3,0.7-1.4,2.1-0.7,2.6c0.7,0.5,3.4,0.7,3.9,2.3s0.9,2.3,1.4,2.1c0.5-0.2,1.8-1.2,2.6-1.1
				c0.9,0.2,5.1,0.9,5.1,0.9S265,176,266.2,175.6z"/>
		</g>
		<g>
			<path class="st2" d="M350.7,150.4c0,0-3.9-2.9-3.1-4.3c0.8-1.4,1.4-8.6,1.4-10c0-1.4,0-3.5-0.4-4.9c-0.4-1.4-1-3.5-1.2-4.9
				c-0.2-1.4-1.4-1-1.4-1h0c-0.3,1.5-1.1,3.6-1.1,4.7c0,1.5,0.3,5,0,6.4c-0.3,1.3-1.2,3.7-2.3,5.6c-1.1,1.9-4,3.3-5.2,3.8
				c-0.4,0.2-1,0.1-1.5-0.1c-1-0.4-2-1.4-2.3-2.4c-0.5-1.6-0.3-3.6-0.4-4.6c-0.1-1.1-1.2-1.9-1.6-2.6c-0.4-0.8-1.3-2.4-1.9-3.6
				c-0.5-1.2-1.6-3.4-2-4.4c-0.4-0.9-2.1-1.6-2.8-2.6c-0.7-1.1-0.3-3.3-0.1-4.5c0.1-1.2,0.9-2,1.5-2.8c0.5-0.8,1.7-2.2,2.5-2.6
				c0.8-0.4,4.8-3,5.7-3.6c0.9-0.5,2.1-1.1,2.9-1.5c0.8-0.4,1.7-0.7,2.6-0.7c0,0,1,0.4,1.6,0.9l0,0c0,0,1.4-1.4,2.5-2.6
				s0.3-6.5,0.5-8.1c0.2-1.6,0-1.9,0.9-3.5c0.9-1.6-0.2-2.6-0.9-3.7c-0.7-1.1,0.3-5.3,0.5-6.7c0.2-1.4,0.3-4.1,0.3-5.8
				c0-1.8-0.9-3.4-1.4-4.8c-0.1-0.2-0.1-0.5-0.2-0.8c-0.1-0.5,0-1,0.1-1.5l0.2,0c0,0,1.6,0.4,2.5,0.2c1-0.2,0.6-6.8,0.6-8
				c0-1.2,1.2-2,1.6-2.5c0.4-0.6,0.6-10.8,0.8-11.5c0.2-0.8,0.4-2.1,0.4-2.1s-0.4-2-1-2.6c-0.6-0.6-0.6-1.6-0.4-2.7
				c0.2-1.2,1.2-2.3,1.8-3.1c0.6-0.8-3.3-0.4-4.1-0.2c-0.6,0.1-1.9,1.1-2.9,1.6c-0.3,0.1-0.5,0.2-0.7,0.2c-0.8,0-1.2-1.2-1.6-2
				c-0.3-0.7-1.2-0.2-1.5-0.1l-0.1-0.1c0,0-2.1-0.9-3-1.8c-0.9-0.9-2.1-5.5-2.1-5.5s-1.2,0.5-1.8,0.9c-0.5,0.4-0.7,1.9-1.1,3.5
				c-0.3,1.6-1.1,2.1-1.6,3c-0.5,0.9-1.6,5.8-1.8,6.7c-0.2,0.9,0,2.6,0.3,4.4c0.3,1.8-0.7,4.8-1.2,6.4c-0.5,1.6-1.2,8.5-1.2,8.5
				s-2.1,1.1-3.2,1.6s-1.1,4.4-1.1,4.4s-1.8,0.2-3.4,0.2s-6,0.4-6,0.4c-1.2,0.4-2.8,3.2-4,3.6c-1.2,0.4-8.3,1.6-10.7,1.6
				s-4-6-5.6-8.3c-1.6-2.4-11.1,0.8-13.9,0.8c-2.8,0-1.6,0.8-2.8,1.6c-1.2,0.8-2.4,0-5.6-0.8c-2.9-0.7-10.6-0.1-12.1,0
				c0.1,1.8,0.1,4.1-0.1,4.9c-0.3,1.1-1.3,2.7-1.3,4c0,1.3-0.6,4.8-1,5.9c-0.3,1.1-1.1,5.9-1.3,7.2c-0.2,1.3-1.6,3.7-1.4,5.1
				c0.2,1.4-0.3,1.4,0,2.7c0.3,1.3,0.2,4.3,0.5,5.9c0.1,0.6,0.3,2.1,0.3,3.7l3.4,0.7c0,0,1.4,3.2,1.2,4.9c-0.2,1.8-0.7,3.2-0.7,3.2
				s3.7,1.1,4.6,1.6s3.4,1.9,3.2,2.8c-0.2,0.9-1.2,1.4-0.9,2.8c0.3,1.4,2.6,8.1,1.6,9.2s-3.2,3.4-3,4.2c0.2,0.9-0.2,4.8-0.2,5.8
				s-0.9,2.3-0.9,2.3l-3.2-2.5c0,0-0.2,4.2,0.7,6.7c0,0-4.2,2.5-4.8,3.7c-0.5,1.2-1.1,3.9-1.6,4.4s-1.9,0.3-2.8-0.5
				c-0.9-0.9-2.1-1.9-2.6-1.4s-2.1,1.8-0.9,2.5c1.2,0.7,2.8,1.6,3.4,2.3c0.5,0.7,1.4,2.5,0.2,2.5c-1.2,0-4.8-2.3-4.1-0.4
				c0.7,1.9,1.2,2.8,1.2,4.1c0,1.2,0.2,2.6,1.1,2.6c0.9,0,2.3,1.1,1.9,1.8c-0.3,0.7-1.4,2.1-0.7,2.6c0.7,0.5,3.4,0.7,3.9,2.3
				s0.9,2.3,1.4,2.1c0.5-0.2,1.8-1.2,2.6-1.1c0.9,0.2,5.1,0.9,5.1,0.9s1.8-4.9,3-5.3c1.2-0.3,2.1-1.4,2.6-1.9
				c0.5-0.5,1.8-1.8,2.1-0.7c0.3,1.1,0,2.6,1.2,2.8c1.2,0.2,3.7,0,4.1,1.8c0.7-0.4,1.1-0.7,1.1-0.7s4.6,3.8,5.6,4.8
				c0.9,0.9,3.6,2,4.5,2.1c0.9,0.1,4.5,0.4,5.8,0c1.3-0.4,2.6-0.9,3.6-0.9c0.9,0,7.3,1.1,8.3,1.5c1.1,0.4,1.5,0.5,2.4,1.5
				c0.9,0.9,2.9,4.4,2.9,4.4l-0.3,10.2c0,0,5.7,2.5,6.7,2.8c1.1,0.3,4.1,0.4,5.2,0.9s6.6,2.9,6.6,2.9l3.2-2.6h0.2
				c0-0.7,0.1-1.3,0.1-1.7c0-0.9,0.9-5.1,1.2-6.5c0.4-1.4,0-2.8-0.2-3.5c-0.2-0.7,0.5-2.1,0.7-3.2c0.2-1.1-0.9-3.4-1.2-4.9
				c-0.4-1.6,0.2-1.2,0.7-2.6c0.5-1.4-0.2-2.5-0.2-3.9c0-1.4,1.8-1.1,3-2.3c1.2-1.2-0.7-1.8-1.4-3c-0.7-1.2-0.2-2.1-0.4-4.1
				c-0.2-1.9-0.3-3-0.2-4.2c0.2-1.2-0.9-1.6-1.4-2.8c-0.5-1.2-0.2-2.6,0-3.9c0,0,1.1,0.5,2.3,0.7c1.2,0.2,2.8,0.5,3.2-0.5
				c0.3-1.1,0.9-2.3,1.8-3.5c0.9-1.2,4.6-3.4,5.8-3.4c1.2,0,3.5,0.5,4.4,0C350.5,150.7,350.6,150.6,350.7,150.4L350.7,150.4z"/>
		</g>
	</g>
	<g id="gray">
		<g>
			<path class="st2" d="M385.3,115.8c-1.1,0.8-4.5,3.2-5.4,4.4l-0.1,0c0,0,1.2-4.8,1.8-6.4c0.5-1.6,1.9-4.4,2.6-5.6
				c0.7-1.2,4.1-6.4,4.9-7.4c0.9-1.1,2.8-4.9,2.8-4.9l1.3,0c0.4,2.4,0.6,5.2,0.3,6c-0.5,1.4-2.1,5.3-2.5,6.4
				c-0.4,1.1-0.9,3.7-2.5,4.4C387.1,113.4,386.6,114.9,385.3,115.8z"/>
		</g>
		<g>
			<path class="st2" d="M384.3,91l-0.9-19.2c0.3,1.5,0.7,3.2,1.5,3.6c1.2,0.7,2.8,2.1,3.2,3.4c0.3,1.2,0.3,4.4,1.4,6.4
				c1.1,1.9,1.8,5.5,2.8,7.1c0.4,0.6,0.8,2.1,1.1,3.7l-1.3,0L384.3,91z"/>
		</g>
		<g>
			<path class="st3" d="M297.2-11.9h74.7v0.2c0,0-0.2,2.6-1.8,3.9c-1.6,1.2-3,1.6-3.2,2.3c-0.2,0.7,0.4,1.8-0.7,2.8s-3,2.6-4.4,3.9
				c-1.4,1.2-2.1,1.9-4.4,3.5c-2.3,1.6-4.1,3.3-4.9,4.6c-0.9,1.2-3,3.4-3.7,4.2c-0.7,0.9-4.6,7.1-4.2,8.3c0.3,1.2,0.5,4.2,0,6
				c-0.5,1.8-1.8,6.2-1.6,7.2c0,0.2,0.1,0.6,0.2,1.1c-0.7,0.4-1.3,1-1.6,1.4c-0.7,0.7-1.8,2.6-1.8,2.6s-2.1-0.9-3-1.8
				c-0.9-0.9-2.1-5.5-2.1-5.5s-1.2,0.5-1.8,0.9c-0.5,0.3-0.7,1.9-1.1,3.5c-0.4,1.6-1.1,2.1-1.6,3c-0.5,0.9-1.6,5.8-1.8,6.7
				c-0.2,0.9,0,2.6,0.3,4.4c0.4,1.8-0.7,4.8-1.2,6.4c-0.5,1.6-1.2,8.5-1.2,8.5s-2.1,1.1-3.2,1.6s-1.1,4.4-1.1,4.4s-1.8,0.2-3.4,0.2
				c-1.6,0-5.9,0.4-5.9,0.4c-1.2,0.4-2.8,3.2-4,3.6c-1.2,0.4-8.3,1.6-10.7,1.6s-4-6-5.6-8.3c-1.6-2.4-11.1,0.8-13.9,0.8
				c-2.8,0-1.6,0.8-2.8,1.6c-1.2,0.8-2.4,0-5.6-0.8c-2.9-0.7-10.6-0.1-12.1,0c0-0.8-0.1-1.4-0.1-1.8c-0.2-1.3,1.6-2.4,2.4-3
				c0.8-0.6,3.8-1.3,5.1-2.7c1.3-1.4,2.1-4.6,2.7-5.9c0.6-1.3,0.6-1.1,1.3-1.4c0.6-0.3,1.3-1,2.1-1.9c0.8-1,2.9-7.7,3-9
				c0.2-1.3,0.3-5.3-0.3-6.2c-0.6-1-1.4-2.7-2.1-3.4c-0.6-0.6,0.8-1.6,1.9-2.2c1.1-0.6,1.1-0.6,1.9-1c0.8-0.3,1.6-3.8,2.1-4.8
				c0.5-1,1.6-3.5,2.1-4.6c0.5-1.1,0.6-5.4,0.8-7c0.2-1.6,1.1-2.7,1.6-3.8c0.5-1.1,1.6-5.6,2.1-6.6c0.5-1,1-3.2,1.3-4.3
				c0.3-1.1,2.7-2.9,3.5-3.4c0.8-0.5,1.9-1.3,2.4-1.9c0.5-0.6,1.8-1.9,2.7-2.9c1-1,2.4-5,2.4-5V-11.9z"/>
		</g>
		<g>
			<path class="st3" d="M364.6,24.5l-1.5,1c0,0-4.1-1.1-6.2-1.1s-1.1,4.1-1.4,5.7c-0.3,1.6-2.3,1.2-3.7,1.8s-2.3,2.1-3.9,3
				c-1.6,0.9-1.9,0.5-3,0.5c-0.5,0-1.1,0.3-1.7,0.7c-0.1-0.5-0.2-0.9-0.2-1.1c-0.2-1.1,1.1-5.5,1.6-7.2c0.5-1.8,0.3-4.8,0-6
				c-0.4-1.2,3.5-7.4,4.2-8.3c0.7-0.9,2.8-3,3.7-4.2c0.9-1.2,2.6-3,4.9-4.6c2.3-1.6,3-2.3,4.4-3.5c1.4-1.2,3.4-2.8,4.4-3.9
				s0.5-2.1,0.7-2.8c0.2-0.7,1.6-1.1,3.2-2.3c1.6-1.2,1.8-3.9,1.8-3.9v-0.2h21.4c0,0.9,2.1,4.6,1.6,6.9c-0.5,2.3-3.4,4.6-4.8,5.8
				c-1.4,1.2-2.6,1.9-4.1,3c-1.4,1.1-3.5,2.8-4.2,3c-0.1,0-0.2,0.1-0.4,0.1c-0.9,0.4-2.8,1.4-4,1.8c-1.4,0.5-2.6,5.1-3.7,6.7
				s-1.4,4.2-1.4,4.2L364.6,24.5z"/>
		</g>
		<g>
			<path class="st4" d="M367.3,137.9c0-1.3,0.7-3,1.7-4.6c1.6-0.9,3.3-1.7,3.8-1.8c1.1-0.2,2.3-1.8,2.8-2.5c0.5-0.7,2.3-2.6,3-3.7
				c0.7-1.1,1.1-3.7,1.1-4.6c0-0.1,0.1-0.3,0.2-0.5c0.9-1.2,4.4-3.7,5.4-4.4c1.2-0.9,1.8-2.5,3.3-3.2c1.6-0.7,2.1-3.4,2.5-4.4
				c0.3-1.1,1.9-4.9,2.5-6.4c0.3-0.8,0.1-3.6-0.3-6c-0.3-1.6-0.7-3-1.1-3.7c-1.1-1.6-1.8-5.1-2.8-7.1c-1.1-1.9-1.1-5.1-1.4-6.4
				c-0.4-1.2-1.9-2.6-3.2-3.4c-0.7-0.4-1.2-2.1-1.5-3.6l-0.1-2.7l5.5-0.2l1.9-9.7l-3-4.1c0,0-1.2-0.2-2.5-0.9
				c-1.2-0.7,0.7-2.6,0.7-2.6s-4.2-5.8-4.9-7.4c-0.7-1.6-0.9-6-0.9-6l-5.3-3.2l3.9-1.9c0,0,0-4.6-0.3-6.2c-0.3-1.6-1.1-3.5-1.4-4.9
				c-0.4-1.4,0.3-4.2,0.9-5.5c0.5-1.2,3.4-3.2,4.1-4.4c0.7-1.2-0.3-5.1-0.3-5.1l0-0.1c0.1-0.1,0.3-0.1,0.4-0.1
				c0.7-0.2,2.8-1.9,4.2-3c1.4-1.1,2.6-1.8,4.1-3c1.4-1.2,4.2-3.5,4.8-5.8c0.5-2.3-1.6-6-1.6-6.9h79.2V206h-0.1
				c-1.4-0.2-4.1-3.7-5.9-5.1c-1.8-1.4-10.9-7.8-15.1-10.2c-4.1-2.3-14.9-10.9-14.9-10.9l-4.5,3.1c0,0-2.2-1.4-2.9-1.9
				c-0.8-0.6-2.7,0.2-4.3,0.8c-1.6,0.6-4.3,1-5.1,1.4c-0.8,0.4-1.8-2.4-2.2-4.3c-0.4-1.9-2.9-7-3.9-8.6c-1-1.6-4.9-5.9-4.9-5.9
				l0.4-8.4c0,0-2.1-0.6-3.3-0.6c-1.2,0-3.9,0.6-5.5,0.4c-1.6-0.2-1.4-1-1.8-2.1c-0.4-1.2-0.4-3.7-0.4-5.1c0-1.2-2.6-1-3.2-1
				c-0.1-0.6-0.3-1.2-0.4-1.8c-0.3-1.8-3-2.3-3.7-2.5c-0.7-0.2-4.1-0.5-4.6-0.5c-0.5,0-3.7-0.7-4.8-0.7s-6.5-0.7-7.9-1.2
				c-1.4-0.5-2.3-1.4-2.8-2.6c-0.4-0.9-2.2-0.6-3.5-0.1L367.3,137.9z"/>
		</g>
		<g>
			<path class="st6" d="M309.4,426.2c-0.3,0.5-0.5,1.5,0,1.1c0.5-0.3,1.3-1.5,1.7-1.9c0.4-0.5,3.5-4.2,4.1-4.8
				c0.6-0.6,2.1-1.9,2.6-2.2c0.6-0.3,1.4-0.9,1.7-1.3c0.2-0.3,0.7-1.5,0.2-1.8c-0.3-0.2-0.7-0.6-1-0.3c-0.3,0.3-0.9,0.7-1.5,0.7
				c-0.6,0.1-1.5,0.3-1.5,0.5c-0.1,0.3-0.7,1.4-1,1.6c-0.3,0.2-1.1,0.4-1.4,0.9c-0.3,0.5-2,4.2-2.2,4.6c-0.2,0.4-0.3,1.3-0.7,1.7
				C310,425.4,309.7,425.7,309.4,426.2z M311,429.6c-0.6,0-2.1-0.3-2.1,0.1c0,0.3-0.3,1.7,0.2,2.7c0.5,1,5,7.3,5.5,8
				c0.5,0.7,3.3,5.5,3.6,6.7c0.2,0.8,0.4,3.8,0.5,6l-0.6,0c-0.1-3.1-0.9-7-1.7-8.4c-1.1-2-6.1-9.1-7-10.5c-0.9-1.3-2-4.4-2.4-5.6
				c-0.4-1.2,1.2-5.8,1.6-7c0.4-1.2,3.3-5.5,3.3-5.5l0-0.1c0.7-0.1,1.3-0.3,1.9-0.5c1.1-0.3,2.3-1.1,3.4-1.4
				c1.1-0.3,1.6-1.2,2.1-2.5c0.5-1.2,3.2-6.7,3.9-7.2c0.7-0.5,0.7-1.6,1.9-0.7c1.2,0.9,2.8,1.6,2.1,3.5c-0.7,1.9-1.2,3.7-1.4,5.3
				c-0.2,1.6-0.5,6,1.1,5.1c1.6-0.9,2.3-2.5,3.2-3.5c0.9-1.1,1.9-2,2.3-3.2c0.3-1.1,0.3-1.9,0.3-3s-0.3-2.6-0.5-3.9
				c-0.2-1.2,0.5-1.8,1.1-2.5c0.5-0.7-0.3-1.9-0.7-3c-0.4-1.1,1.2-0.9,2.1-1.2c0.9-0.4,1.1-8.8,1.1-10.1c0-1.2,0.5-1.8,1.2-2.6
				c0.7-0.9-2.1-3.7-2.8-4.6c-0.7-0.9,0-2.8,0-3.9s-0.5-5.3-0.5-6.5s0.5-6.9,0.7-8.1c0.2-1.2,1.4-4.4,1.6-5.5
				c0.2-1.1,0.5-2.5,0.5-3.5s0.7-8.8,0.9-10.2c0.2-1.4,1.4-6.9,1.9-8.1c0.5-1.2-0.7-2.8-1.9-3.7c-1.2-0.9-1.6-0.7-2.8-0.5
				c-0.3,0-0.6,0.1-0.9,0.1l0-0.1c0.5-0.9-0.5-3.2-1.4-3.9c-0.9-0.7-0.3-2.6-0.3-3.7s-0.5-2.8-0.7-4.1c-0.2-1.2,0.7-1.1,1.8-1.8
				c1.1-0.7-1.2-3.5-2.1-5.5c-0.9-1.9,0-1.9,0.2-3c0.2-1.1-1.6-3.5-2.3-4.8c-0.7-1.2-0.5-2.1-0.5-3.3c0-1.2,1.1-2.1,2.5-3
				c1.4-0.9,0.7-2.1,0.5-3.3c-0.2-1.2-0.3-1.8-0.2-4.2c0.2-2.5,0-2.3-0.5-3.2c-0.5-0.9-2.1-1.9-2.8-3.2c-0.7-1.2,0.2-2.6,0.7-3.5
				c0.5-0.9-1.1-3.2-1.4-4.2c-0.3-1.1,0.4-3,1.1-4.1c0.7-1.1,0.9-2.3,2.1-3.7c1.2-1.4,0.5-2.8-0.5-4.8s1.4-2.6,1.9-4.1
				c0.5-1.4,0.3-2.8,1.4-4.2c1.1-1.4-0.2-2.8-0.3-3.9c-0.2-1.1,1.2-3.5,1.6-4.8c0.3-1.2,0.9-4.8,0.7-6.2c-0.2-1.4-0.2-3.5-0.2-4.6
				s-0.7-3.3-1.2-4.1c-0.5-0.7,0-1.2,0.7-2.1c0.7-0.9-0.7-2.3-1.1-3c-0.4-0.7,0-1.8,0.7-3c0.7-1.2-0.9-2.3-1.6-2.8
				c-0.7-0.5,0.2-3.7,0.4-4.6c0.2-0.9,0.7-3.2,1.1-4.2c0.3-1.1-0.5-3.3-1.1-4.4c-0.3-0.6-0.3-1.7-0.3-2.7c0-0.7,0.1-1.3,0.1-1.7
				c0-0.9,0.9-5.1,1.2-6.5c0.3-1.4,0-2.8-0.2-3.5s0.5-2.1,0.7-3.2c0.2-1.1-0.9-3.4-1.2-4.9c-0.3-1.6,0.2-1.2,0.7-2.6
				c0.5-1.4-0.2-2.5-0.2-3.9c0-1.4,1.8-1.1,3-2.3c1.2-1.2-0.7-1.8-1.4-3c-0.7-1.2-0.2-2.1-0.3-4.1c-0.2-1.9-0.4-3-0.2-4.2
				c0.2-1.2-0.9-1.6-1.4-2.8c-0.5-1.2-0.2-2.6,0-3.9c0,0,1.1,0.5,2.3,0.7c1.2,0.2,2.8,0.5,3.2-0.5c0.4-1.1,0.9-2.3,1.8-3.5
				c0.9-1.2,4.6-3.3,5.8-3.3c1.2,0,3.5,0.5,4.4,0c0.1-0.1,0.3-0.2,0.4-0.3c0.6-0.7,0.9-1.9,1.4-2.5c0.5-0.7,1.2-1.9,2.6-2.5
				c1.4-0.5,8.1-3.4,8.6-4.1c0.2-0.3,0.6-0.7,1-1.1c0.7-0.7,1.5-1.5,2-1.9c0.1-0.1,0.3-0.2,0.5-0.3c0.1-0.1,0.3-0.1,0.4-0.2
				c1.2-0.5,3.1-0.9,3.5,0.1c0.5,1.2,1.4,2.1,2.8,2.6c1.4,0.5,6.9,1.2,7.9,1.2s4.2,0.7,4.8,0.7c0.5,0,3.9,0.3,4.6,0.5
				c0.7,0.2,3.4,0.7,3.7,2.5c0.1,0.7,0.3,1.3,0.4,1.8c0.6-0.1,3.2-0.2,3.2,1c0,1.4,0,3.9,0.4,5.1c0.4,1.2,0.2,2,1.8,2.1
				c1.6,0.2,4.3-0.4,5.5-0.4c1.2,0,3.3,0.6,3.3,0.6l-0.4,8.4c0,0,3.9,4.3,4.9,5.9c1,1.6,3.5,6.7,3.9,8.6c0.4,2,1.4,4.7,2.2,4.3
				c0.8-0.4,3.5-0.8,5.1-1.4c1.6-0.6,3.5-1.4,4.3-0.8c0.8,0.6,2.9,1.9,2.9,1.9l4.5-3.1c0,0,10.8,8.6,14.9,10.9
				c4.1,2.4,13.3,8.8,15.1,10.2c1.8,1.4,4.5,4.9,5.9,5.1h0.1v581.8l-40.6,33.7v0.3h-35.6v-0.3L237.2,796l-0.1,0
				c0.6-0.9,0.3-5,0.3-6.4c0-1.4,0.7-2.1,1.6-3c0.9-0.9,0-2-0.4-3.2c-0.4-1.2-0.4-2.3-0.2-4.3c0.2-2,0.5-3.2,1.1-4.5
				c0.5-1.2,1.2-2.9,1.8-3.4c0.5-0.5,2.3-4.7,2.5-5.6c0.2-0.9,1.2-1.8,1.2-2.7c0-0.9-1.4-1.6-2.5-1.8c-1-0.2-2-1.3-2.1-1.4v0
				c-0.1-0.9-0.3-3.5-0.6-4.9c-0.4-1.7,0.7-5.9,1.3-7.6c0.6-1.7,3.7-4.1,3.7-4.1s0.2-3.7,0.2-5.2c0-1.5,0.9-3.3,1.7-5
				c0.9-1.7,0.2-6.9,0.2-8.7c0-1.7,1.5-3.7,2.2-4.8c0.7-1.1,1.3-4.6,1.5-6.1c0.2-1.5,3.9-10,4.5-12.3c0.7-2.4,0.4-8.9,0.4-10.4
				c0-1.5,0.4-9.1,0.4-10.2c0-1.1,0.9-2.2,2.4-4.1c1.5-2,0.9-8.7,1.1-10c0.2-1.3,2.8-7.8,4.3-10c1.5-2.2,6.7-8,7.1-12.4
				c0.4-4.3-2.6-11.7-2.8-13.9c-0.2-2.2-1.1-3.9-1.1-6.1c0-2.2,0.9-3.5,1.5-5.6c0.6-2.2,0.9-6.3,0.9-7.6c0-1.3,1.7-2.8,2.6-4.5
				c0.9-1.7,0.7-3.3,0.7-5.6c0-2.4-3.9-10.8-3.9-10.8h0c0.1-1.1,0.2-2.1,0.2-2.5c0-1.1,0.9-2.5,1.4-3.4c0.5-0.9,1.4-4.1,1.9-5.3
				c0.5-1.2,1.4-5.3,1.6-6.5c0.2-1.2,1.4-6.4,1.8-8.1c0.3-1.8,0.5-1.8,0.3-3.7s0-3.5,0.7-4.8c0.7-1.2,4.4-8.5,4.8-9.3
				c0.3-0.9,3.2-6.9,3.9-7.9c0.7-1.1,1.4-2.5,2.8-4.6c1.4-2.1,2.3-6.2,2.6-7.9c0.3-1.8,0.5-5.3,1.1-6.4c0.5-1.1,2.8-3.9,3.7-4.9
				c0.9-1.1,1.8-2.5,2.6-3.7c0.9-1.2-0.5-4.6-0.9-6.4c-0.4-1.8,1.1-4.2,1.4-5.8c0.3-1.6,0.3-2.8,1.2-4.1c0.9-1.2,6.2-4.9,6.9-5.6
				c0.5-0.5,1.1-0.8,1.8-1c0.3-0.1,0.7-0.1,1.2-0.1c1.4,0,2.8-3.9,3.5-5.1c0.7-1.2,1.8-1.8,2.6-2.6c0.9-0.9,1.2-4.8,1.4-5.8
				c0.2-1.1,1.2-1.9,2.5-3.5c1.2-1.6,0.3-1.8,0-2.5c-0.3-0.7-0.5-2.1-0.5-3.4c0-1.2,0.7-2.6,0.7-2.6v-0.1c1.1-0.2,2.3-0.6,3.3-1.2
				l0.1-1.7l4-2.7l-1.5-2.3l-0.7,0.5l-1-1.4l0.9-0.6c0,0-0.7-2.8-0.4-3.6l1.3,0.3l3.8-3.6c0,0,0.1-2.5-0.3-2.8
				c-0.5-0.3-1.7-0.7-1.9-1.1c-0.2-0.4-0.8-1.1-1.1-1.4c-0.3-0.3-1.2-1.1-1.3-1.5c-0.1-0.5-0.3-1-0.3-1l-2-0.4c0,0-7.1-4.2-7.8-7.1
				l-1.9,0.6C313.4,431.2,312.6,429.7,311,429.6z"/>
		</g>
		<g>
			<path class="st3" d="M195.6,650.3l5,14.5c0,0,1.7,3.7,1.5,5.4c-0.2,1.7-0.4,5,0,6.5c0.4,1.5,16.5,45.1,16.5,46.4
				c0,1.3-0.7,4.8-0.4,6.7c0.2,2,2.8,5.6,3.3,7.8c0.4,2.2,1.3,6.5,0.9,7.6c-0.4,1.1-1.7,3.7-1.7,3.7s2.2,12.4,3.5,14.7
				c1.3,2.4,3,5.8,3,7.6l0,0c0,0-0.1,0-0.1,0c-1.8,0.4-5,0.5-6.3,2c-1.3,1.4-1.6,1.4-2.2,3.8c-0.5,2.3-0.7,3.8-1.6,4.5
				c-0.9,0.7-1.6,0.7-2.2,2.1c-0.5,1.4-2.5,4.1-2.9,5.4c-0.4,1.3-0.2,3.9-1.3,4.1c-1.1,0.2-2,0-2.3,1.3c-0.4,1.3-1.1,4.5-2,5.2
				c-0.9,0.7-2.9,1.2-3.8,2.5c-0.9,1.3-0.9,2.3-1.6,2.7c-0.7,0.3-1.4,0.2-1.2,1.4c0.2,1.3,1.6,2,1.1,4.1c-0.5,2.2,0,2.9-0.7,4.1
				c-0.7,1.3-1.1,1.8-1.8,3.2c-0.6,1.2-1.1,3.4-1.2,4.1H-2.9V455h0.1c0,0,11.2,1.1,17.1,0.6c5.9-0.5,19-4.2,25.8-6.4
				c6.7-2.2,16.8-5,19.9-5.9c3-1,17.1-7,18.1-7.5c1-0.5,6.2-2.2,7.8-2.9c1.6-0.6,5.1-4.2,6.4-4.5c1.3-0.3,9.4-4.8,11.5-6.9
				c1.8-1.8,7.4-5.3,9.7-6.9l0,0c0,0,2.2,3.9,3.7,8c0.4,1,1.9,5.9,4.1,12.9c6.7,21.5,19.3,62.1,19.9,64.1c0.9,2.6,7.6,19.5,9.8,23.2
				c2.2,3.7,7.6,17.8,8.2,19.7c0.7,1.9,3.9,12.1,3.9,14.5s-1.1,10.8-0.2,12.4c0.9,1.5,6.9,6.3,6.1,8.9c-0.9,2.6-2.6,8.2-2.6,10
				c0,1.7,0.4,4.3,0.4,4.3l11.9,8.2L195.6,650.3z"/>
		</g>
		<g>
			<path class="st5" d="M308.8,487.9c0.9-1,1.4-5,1.4-5l0-0.1l0.7-0.1c0,0-0.3-3.7-0.2-4.4c0.1-0.7,0.3-2.4,0.5-2.8
				c0.1-0.4,0.9-4,0.9-5.1c0-1.1-0.2-2.3,0.3-3.1c0.5-0.8,2.6-4.7,3.1-5.7l0,0c0.9-1.7,1.8-3.9,2.1-5.5c0.2-0.8,0.2-1.8,0.2-3l0.6,0
				c0,1.2,0,2.3,0,2.6c-0.1,1-0.7,3.2-0.9,3.6c-0.2,0.5-1,2.9-1,2.9s1.6,0.1,3.5-0.2v0.1c0,0-0.7,1.4-0.7,2.6c0,1.2,0.2,2.6,0.5,3.4
				c0.3,0.7,1.2,0.9,0,2.5c-1.2,1.6-2.3,2.5-2.5,3.5c-0.2,1.1-0.5,4.9-1.4,5.8c-0.9,0.9-1.9,1.4-2.6,2.6c-0.7,1.2-2.1,5.1-3.5,5.1
				C309.5,487.8,309.2,487.8,308.8,487.9z"/>
		</g>
		<g>
			<path class="st7" d="M158.9,362.9c0,0,9.3,7.9,9.8,9s1.1,2.4,0.3,3.4c-0.8,1.1-2.9,2.4-3.7,3.2c-0.8,0.8-5.6,3.2-6.4,4.5
				c-0.8,1.3-7.9,9-9.3,10.1c-1.3,1.1-11.6,10.9-11.4,13.5c0.3,2.6,2.4,12.7,0.5,13.5c-1.9,0.8-4.5,2.4-4.5,2.4l-1.6,4.5l-11.4,8.7
				c-2.2-6.9-3.7-11.8-4.1-12.9c-1.5-4.1-3.7-8-3.7-8l0,0c0.3-0.2,0.5-0.4,0.7-0.5c1.4-1.1,5-5.3,5.9-6.6c1-1.3,4.3-4.8,5.3-5.9
				c1-1.1,7.8-7,9-8.3c1.1-1.3,5.6-6.1,6.6-7c1-1,3.2-4.8,4.3-6.4c1.1-1.6,8.5-10.2,9.8-11.5c1.3-1.3,2.9-4,3.5-5
				C158.6,363.4,158.7,363.2,158.9,362.9L158.9,362.9z"/>
		</g>
		<g>
			<path class="st2" d="M343.6,42.1c0.9-0.4,2.3-1.4,2.9-1.6c0.8-0.2,4.7-0.6,4.1,0.2c-0.6,0.8-1.6,2-1.8,3.1
				c-0.2,1.2-0.2,2.1,0.4,2.7c0.6,0.6,1,2.5,1,2.5s-0.2,1.4-0.4,2.1c-0.2,0.8-0.4,11-0.8,11.5c-0.4,0.6-1.6,1.4-1.6,2.5
				c0,1.2,0.4,7.8-0.6,8c-1,0.2-2.5-0.2-2.5-0.2l-0.2,0c-0.1,0.5-0.1,1.1-0.1,1.5c0,0.3,0.1,0.5,0.2,0.8c0.5,1.4,1.4,3,1.4,4.8
				c0,1.8-0.2,4.4-0.4,5.8c-0.2,1.4-1.2,5.6-0.5,6.7c0.7,1.1,1.8,2.1,0.9,3.7c-0.9,1.6-0.7,1.9-0.9,3.5c-0.2,1.6,0.5,6.9-0.5,8.1
				c-1.1,1.2-2.5,2.6-2.5,2.6l0,0c0,0,0,0,0,0c0.5,0.5,0.3,1.1,0.3,1.7c0,0.7,3.4,2.8,4.1,3.7c0.7,0.9,0,1.7-0.4,3
				c-0.4,1.3,0.3,3.7,0.4,5c0,0.3,0,0.7-0.1,1.1h0c0,0,1.2-0.4,1.4,1c0.2,1.4,0.8,3.5,1.2,4.9c0.4,1.4,0.4,3.5,0.4,4.9
				c0,1.4-0.6,8.6-1.4,10c-0.8,1.4,3.1,4.3,3.1,4.3l0,0c0.6-0.7,0.9-1.9,1.4-2.5c0.5-0.7,1.2-1.9,2.6-2.5c1.4-0.5,8.1-3.4,8.6-4.1
				c0.2-0.3,0.6-0.7,1-1.1l-0.1-0.1c1.8-1.6,2.9-2.6,3.2-3.9c0.2-0.6,0.3-1.2,1.4-3c1.9-3.3,5-6.4,5.6-6.9c0.9-0.7,4.1-8.1,4.2-9.2
				c0.2-1.1,1.2-6.4,1.2-7.4s4.8-6.4,5.8-7.9s0-3.2-0.7-4.2c-0.7-1.1-2.6-4.6-2.8-5.5c-0.2-0.9-0.9-5.1-0.9-6.7
				c0-1.6-2.3-10.8-2.3-11.8s-5.3-4.8-5.8-6c-0.5-1.2,0-1.9,0.5-2.8c0.5-0.9,2.5-5.6,3.4-7.1c0.9-1.4,0-3-0.3-4.6
				c-0.4-1.6-3.7-3-3.7-3s-0.5-6.9-0.7-8.1c-0.2-1.2-4.6-4.6-5.6-5.3c-1.1-0.7,5.1-8.3,5.1-8.3l-7.2-3.9l-0.1-0.1l-1.5,1
				c0,0-4.1-1.1-6.2-1.1s-1.1,4.1-1.4,5.7c-0.3,1.6-2.3,1.2-3.7,1.8s-2.3,2.1-3.9,3c-1.6,0.9-1.9,0.5-3,0.5c-0.5,0-1.1,0.3-1.7,0.7
				c0,0-2.3,1.5-3.3,4c0,0,1-0.5,1.3,0.1c0.3,0.6,1,1.8,1.3,2C342.8,42.3,343.6,42.1,343.6,42.1z"/>
		</g>
		<g>
			<path class="st1" d="M250,312.3c-0.7,0.1-3.6,3.3-4.4,4s-2.8,0.3-3.6,0.3c-0.8,0-1.6-1.1-1.7-1.9s0.4-1.7,0.9-2
				c0.5-0.3,0.9-1.2,1.2-2c0.3-0.8,4.1,0.4,5.4,0.3c1.3-0.1,1.3-4.2,1.3-5s-0.1-6.5-0.1-6.5s-4.6-4.5-5.2-4.9s-0.5-2-0.8-2.9
				c-0.3-0.9-1.6-2-1.6-2l-0.6-0.1c0.1-0.3,0.1-0.6,0.2-0.9c0.3-0.7,0.8-2.9,0.9-3.6c0.1-0.7-0.3-1.8-0.4-2.6
				c-0.1-0.8,1.1-2.6,1.3-3.6c0.3-0.9-0.4-6.9-0.4-7.9s-2.1-3-2.4-3.8c-0.3-0.8,0.5-2.9,1.2-3.4c0.7-0.5-1.2-3.7-1.6-5.2
				s0.4-2.4,0.3-3.7c-0.1-1.3-2.6-0.9-2.6-0.9s-0.1-1.6-0.3-2.8c-0.1-1.2-1.3-2.2-1.7-3.6c-0.4-1.3,1.9-2.9,2.8-3.4
				c0.9-0.5,5.8-5,5.8-5l0.4-1.5c0,0,0.5,0,1.5-0.1c0.9-0.1,0.5-3.3,0.7-4.4c0.1-1.1-0.4-2.2-1.1-3.2c-0.7-0.9-1.2-0.8-1.6-1.1
				c-0.4-0.3-0.1-1.3,0.1-2.2c0.3-0.9,0-2.8,0.5-3.5c0.5-0.7,0.8-6.5,0.8-6.5s2.6-0.5,3.7-1.2c1.1-0.7,0.1-4.8,0.1-6.5
				c0-1.7,2.3-4.2,2.3-4.2s-0.5-1.6-0.8-2.1s0.4-1.7,0.8-2.1c0.4-0.4,0.8-2.6,1.1-3.7c0.3-1.1,3.8-5.3,4.2-5.7
				c0.4-0.4,1.9-0.4,2.6-0.7c0.8-0.3,1.1-0.9,1.6-1.5c0.5-0.5,4.1-1.6,4.1-1.6c1.1-0.4,2.5-1.7,2.9-2.5c0.4-0.8,2.1-3.2,2.5-3.6
				c0.4-0.4,6.9-4.6,6.9-4.6s4.6,3.8,5.6,4.8c0.9,0.9,3.6,2,4.5,2.1c0.9,0.1,4.5,0.4,5.8,0c1.3-0.4,2.6-0.9,3.6-0.9
				c0.9,0,7.3,1.1,8.3,1.5s1.5,0.5,2.4,1.5c0.9,0.9,2.9,4.4,2.9,4.4l-0.3,10.2c0,0,5.7,2.5,6.7,2.8c1.1,0.3,4.1,0.4,5.2,0.9
				s6.6,2.9,6.6,2.9l3.2-2.6h0.2c0,1,0,2.1,0.3,2.7c0.5,1.1,1.4,3.3,1.1,4.4c-0.4,1.1-0.9,3.4-1.1,4.2c-0.2,0.9-1.1,4.1-0.4,4.6
				c0.7,0.5,2.3,1.6,1.6,2.8c-0.7,1.2-1.1,2.3-0.7,3c0.3,0.7,1.8,2.1,1.1,3c-0.7,0.9-1.2,1.4-0.7,2.1c0.5,0.7,1.2,3,1.2,4.1
				s0,3.2,0.2,4.6c0.2,1.4-0.3,4.9-0.7,6.2c-0.4,1.2-1.8,3.7-1.6,4.8c0.2,1.1,1.4,2.5,0.3,3.9c-1.1,1.4-0.9,2.8-1.4,4.2
				c-0.5,1.4-3,2.1-1.9,4.1s1.8,3.4,0.5,4.8c-1.2,1.4-1.4,2.6-2.1,3.7c-0.7,1.1-1.4,3-1.1,4.1c0.4,1.1,1.9,3.4,1.4,4.2
				c-0.5,0.9-1.4,2.3-0.7,3.5c0.7,1.2,2.3,2.3,2.8,3.2c0.5,0.9,0.7,0.7,0.5,3.2c-0.2,2.5,0,3,0.2,4.2c0.2,1.2,0.9,2.5-0.5,3.3
				c-1.4,0.9-2.5,1.8-2.5,3c0,1.2-0.2,2.1,0.5,3.3c0.7,1.2,2.5,3.7,2.3,4.8c-0.2,1.1-1.1,1.1-0.2,3c0.9,1.9,3.2,4.8,2.1,5.5
				c-1.1,0.7-1.9,0.5-1.8,1.8c0.2,1.2,0.7,3,0.7,4.1s-0.5,3,0.3,3.7c0.9,0.7,1.9,3,1.4,3.9l0,0.1c-1.1,0.1-2.1,0.1-2.1,0.1
				c-0.9-0.2-2.3-0.4-3.7-0.5c-1.4-0.2-3,0-3.5,1.2c-0.5,1.2-1.9,4.8-2.6,5.7c-0.7,0.9-3.3,1.4-4.1,2.6c-0.7,1.2-1.2,2.5-1.2,3.9
				c0,1.4,0,3.4-0.2,4.2c-0.2,0.9-2.3,6.4-3.4,7.4s-1.9,2.1-2.3,3.4c-0.3,1.2-1.4,4.8-0.9,5.8c0.5,1.1,2.6,4.1,1.6,4.9
				c-1.1,0.9-1.9,1.2-2.1,2.5c-0.2,1.2-1.6,5.5-1.4,7.2c0.1,0.8,0.3,2.3,0.5,3.9c-0.2,0-3.6,0.6-4.4,1.3c-0.8,0.8-5,6.1-6.6,7
				c-1.6,0.9-3.3,3.4-4.4,4c-1.1,0.5-5.8,3.3-5.8,3.3s-3.7,3.6-6.1,5.4c-2.4,1.8-4.6,1.7-5.7,1.7s-7,1.3-8.2,1.6
				c-1.2,0.3-4.8,0.8-6.6,0.8s-8.2,0-9,0.1c-0.8,0.1-3.7-0.3-4.1-0.4c-0.4-0.1-3,0-4,0.3c-0.9,0.3-8.6,2.3-9.9,2.4
				c-1.3,0.1-5.3-1.2-6.1-2.2s-2.3-2.3-2.8-3.6c-0.5-1.3-0.8-4.9-0.8-4.9s2.2-5.3,3-6.4s1.6-3.5,2.3-4.2c0.7-0.8,2.5-3.8,3-4.5
				c0.5-0.7,1.6-3.8,1.6-5.5c0-1.7,0-6.6,0-8.5c0-1.9,0.7-7.2,0.9-7.8c0.3-0.7,2.5-1.6,3.2-2.4c0.7-0.8,1.7-4.2,2-5
				c0.3-0.8,2.8-2.6,3.3-3c0.5-0.4,11.5-7,12.4-7.5c0.9-0.5,1.2-2.4,1.8-3.3c0.7-0.9,2.6-1.1,3.2-1.5c0.5-0.4,1.5-2,2.1-3
				c0.7-1.1,1.6-0.5,2.6-0.5s3.6-2.2,4.4-2.8c0.8-0.5,4.5-0.4,5.4-0.4c0.9,0,1.7,0.4,3,0.8c1.3,0.4,2.3-0.7,3.2-1.5
				c0.9-0.8-1.1-3.2-2-4.1c-0.9-0.9-0.9-3.8-0.9-5c0-1.2-4.2-2.4-5.2-2.5c-0.9-0.1-6.5-1.1-7.9-1.3c-1.5-0.3-2.8-1.7-3.3-2.3
				c-0.4-0.4-2.5-1-3.9-1.4c-0.2-0.4-1-1.9-1.4-2.4c-0.5-0.5-1.3-2.1-2.4-2.1S250.7,312.2,250,312.3z"/>
		</g>
		<g>
			<path class="st2" d="M379.9,120.3c-0.1,0.2-0.2,0.4-0.2,0.5c0,0.9-0.3,3.5-1.1,4.6c-0.7,1.1-2.5,3-3,3.7
				c-0.5,0.7-1.8,2.3-2.8,2.5c-0.5,0.1-2.2,0.9-3.8,1.8c1.9-3.3,5-6.4,5.6-6.9c0.9-0.7,4.1-8.1,4.2-9.2c0.2-1.1,1.2-6.4,1.2-7.4
				s4.8-6.4,5.8-7.9s0-3.2-0.7-4.2c-0.7-1.1-2.6-4.6-2.8-5.5c-0.2-0.9-0.9-5.1-0.9-6.7c0-1.6-2.3-10.8-2.3-11.8s-5.3-4.8-5.8-6
				c-0.5-1.2,0-1.9,0.5-2.8c0.5-0.9,2.5-5.6,3.4-7.1c0.9-1.4,0-3-0.3-4.6c-0.4-1.6-3.7-3-3.7-3s-0.5-6.9-0.7-8.1
				c-0.2-1.2-4.6-4.6-5.6-5.3c-1.1-0.7,5.1-8.3,5.1-8.3l-7.2-3.9l-0.1-0.1l7.6-4.8c0,0,0.4-2.6,1.4-4.2s2.3-6.2,3.7-6.7
				c1.2-0.5,3.1-1.4,4-1.8l0,0.1c0,0,1.1,3.9,0.3,5.1c-0.7,1.2-3.5,3.2-4.1,4.4c-0.5,1.2-1.2,4.1-0.9,5.5c0.3,1.4,1.1,3.4,1.4,4.9
				c0.3,1.6,0.3,6.2,0.3,6.2l-3.9,1.9l5.3,3.2c0,0,0.2,4.4,0.9,6c0.7,1.6,4.9,7.4,4.9,7.4s-1.9,1.9-0.7,2.6c1.2,0.7,2.5,0.9,2.5,0.9
				l3,4.1l-1.9,9.7l-5.5,0.2l0.1,2.7l0.9,19.2l7.8,4.9c0,0-1.9,3.9-2.8,4.9c-0.9,1.1-4.2,6.2-4.9,7.4c-0.7,1.2-2.1,4.1-2.6,5.6
				C381.1,115.5,379.9,120.2,379.9,120.3L379.9,120.3z"/>
		</g>
	</g>
	<g id="lake_1_">
		<g>
			<path class="st8" d="M315.2,420.6c-0.6,0.6-3.7,4.3-4.1,4.8c-0.4,0.5-1.2,1.6-1.7,1.9c-0.5,0.3-0.3-0.7,0-1.1
				c0.3-0.5,0.7-0.8,1.1-1.2c0.4-0.4,0.5-1.3,0.7-1.7c0.2-0.4,1.9-4,2.2-4.6c0.3-0.5,1.1-0.7,1.4-0.9c0.3-0.2,0.9-1.3,1-1.6
				c0.1-0.3,0.9-0.5,1.5-0.5c0.6-0.1,1.1-0.5,1.5-0.7c0.3-0.3,0.7,0.2,1,0.3c0.5,0.3,0,1.5-0.2,1.8c-0.2,0.3-1.1,0.9-1.7,1.3
				C317.3,418.7,315.8,420,315.2,420.6z"/>
		</g>
		<g>
			<path class="st8" d="M317.5,452.1c0.2,3.7-1.5,8.5-1.9,9.5c-0.5,1-2.6,4.9-3.1,5.7c-0.5,0.8-0.3,2-0.3,3.1c0,1.1-0.8,4.7-0.9,5.1
				c-0.1,0.4-0.3,2-0.5,2.8c-0.1,0.7,0.2,4.4,0.2,4.4l-0.7,0.1L303,484l-0.6-1.8c0,0,0.4-0.8,0.7-1.1c0.3-0.3,1-2.4,1.1-2.8
				c0.1-0.4,0-1.7,0-2.1c0-0.5,0.2-1.5,0-2.1c-0.2-0.5-0.5-1-0.9-1.5c-0.4-0.5-0.2-0.9-0.1-1.3c0.1-0.5,1.3-1.1,1.7-1.6
				c0.3-0.5,0.7-1.9,0.9-2.4c0.1-0.5,2.3-2.5,2.8-3c0.5-0.5,0.2-2.4,0-3c-0.2-0.6-1.2-3-1.3-3.5c-0.1-0.5-0.2-2.2-0.2-2.8
				c0-0.6-0.4-1.4-0.6-2.3c-0.2-0.9,0.1-1.9,0.1-2.4c0-0.5-0.5-1.5-0.9-1.8c-0.4-0.3-2-1-2.4-1.2c-0.5-0.2,0.1-3,0.1-3.7
				c0.1-0.7-0.7-2.2-0.8-2.6c-0.1-0.5-0.1-0.9-0.1-1.5s-0.1-0.9-0.3-1.2c-0.1-0.3,0-1.3,0.1-1.8c0.1-0.5-1-1.7-1.1-2.1
				c-0.1-0.5,0.7-1.6,1-1.9c0.3-0.3,3.9-0.2,3.9-0.2c0.8,0.1,1.5,0.7,1.5,0.7s4.1,6,4.6,6.6c0.5,0.5,3.2,4.7,3.8,5.6
				C316.6,446,317.3,448.4,317.5,452.1z"/>
		</g>
		<g>
			<path class="st8" d="M308.9,429.7c0-0.3,1.5-0.1,2.1-0.1c1.6,0.1,2.4,1.6,2.4,1.6l1.9-0.6c0.7,2.8,7.8,7.1,7.8,7.1l2,0.4
				c0,0,0.1,0.5,0.3,1c0.1,0.5,1.1,1.2,1.3,1.5c0.3,0.3,0.9,1.1,1.1,1.4c0.2,0.4,1.4,0.8,1.9,1.1c0.5,0.3,0.3,2.8,0.3,2.8l-3.8,3.6
				l-1.3-0.3c-0.3,0.9,0.4,3.6,0.4,3.6l-0.9,0.6l1,1.4l0.7-0.5l1.5,2.3l-4,2.7l-0.1,1.7c-1,0.7-2.2,1-3.3,1.2
				c-1.9,0.4-3.5,0.2-3.5,0.2s0.8-2.4,1-2.9c0.2-0.5,0.7-2.6,0.9-3.6c0.1-0.3,0-1.4,0-2.6c-0.1-2.3-0.3-5.2-0.5-6
				c-0.3-1.2-3.1-6-3.6-6.7c-0.5-0.7-5-7-5.5-8C308.6,431.4,308.9,430,308.9,429.7z"/>
		</g>
		<g>
			<path class="st8" d="M308,382.4c-0.2-1.5-0.4-3.1-0.5-3.9c-0.2-1.8,1.2-6,1.4-7.2c0.2-1.2,1.1-1.6,2.1-2.5
				c1.1-0.9-1.1-3.9-1.6-4.9c-0.5-1.1,0.5-4.6,0.9-5.8c0.4-1.2,1.2-2.3,2.3-3.4s3.2-6.5,3.4-7.4c0.2-0.9,0.2-2.8,0.2-4.2
				c0-1.4,0.5-2.6,1.2-3.9c0.7-1.2,3.4-1.8,4.1-2.6c0.7-0.9,2.1-4.4,2.6-5.7c0.5-1.2,2.1-1.4,3.5-1.2c1.4,0.2,2.8,0.3,3.7,0.5
				c0,0,1.1,0,2.1-0.1c0.3,0,0.6-0.1,0.9-0.1c1.2-0.2,1.6-0.3,2.8,0.5c1.2,0.9,2.5,2.5,1.9,3.7c-0.5,1.2-1.8,6.7-1.9,8.1
				c-0.2,1.4-0.9,9.2-0.9,10.2s-0.3,2.5-0.5,3.5c-0.2,1.1-1.4,4.2-1.6,5.5c-0.2,1.2-0.7,6.9-0.7,8.1s0.5,5.5,0.5,6.5s-0.7,3,0,3.9
				c0.7,0.9,3.5,3.7,2.8,4.6c-0.7,0.9-1.2,1.4-1.2,2.6c0,1.2-0.2,9.7-1.1,10.1c-0.9,0.3-2.5,0.2-2.1,1.2c0.3,1.1,1.2,2.3,0.7,3
				c-0.5,0.7-1.2,1.2-1.1,2.5c0.2,1.2,0.5,2.8,0.5,3.9s0,1.9-0.3,3c-0.4,1.2-1.4,2.1-2.3,3.2c-0.9,1.1-1.6,2.6-3.2,3.5
				c-1.6,0.9-1.2-3.5-1.1-5.1c0.2-1.6,0.7-3.4,1.4-5.3c0.7-1.9-0.9-2.6-2.1-3.5c-1.2-0.9-1.2,0.2-1.9,0.7c-0.7,0.5-3.3,6-3.9,7.2
				c-0.5,1.2-1.1,2.1-2.1,2.5c-1.1,0.3-2.3,1.1-3.4,1.4c-0.5,0.2-1.2,0.4-1.9,0.5c-0.7,0.1-1.3,0.1-1.8,0.1
				c-1.1-0.2-0.5-0.9-0.5-2.5c0-1.6,0.5-1.6,1.2-2.6c0.7-1.1-0.2-2.1-0.7-3c-0.5-0.9-1.4-4.8-1.8-5.7c-0.3-0.9-1.8-5.3-1.9-6.9
				s2.1-7.4,2.1-8.8C308.4,385.9,308.2,384.2,308,382.4z"/>
		</g>
		<g>
			<path class="st8" d="M337.5,145.8c-0.4,0.2-1,0.1-1.5-0.1c-1-0.4-2-1.4-2.3-2.4c-0.5-1.6-0.3-3.6-0.4-4.6
				c-0.1-1.1-1.2-1.9-1.6-2.6c-0.4-0.8-1.3-2.4-1.9-3.6c-0.5-1.2-1.6-3.5-2-4.4c-0.4-0.9-2.1-1.6-2.8-2.6s-0.3-3.3-0.1-4.5
				c0.1-1.2,0.9-2,1.5-2.8c0.5-0.8,1.7-2.3,2.5-2.6c0.8-0.4,4.8-3,5.7-3.6c0.9-0.5,2.1-1.1,2.9-1.5c0.8-0.4,1.7-0.7,2.6-0.7
				c0,0,1,0.4,1.6,0.9c0,0,0,0,0,0c0.5,0.5,0.3,1.1,0.3,1.7c0,0.7,3.4,2.8,4.1,3.7c0.7,0.9,0,1.7-0.4,3c-0.4,1.3,0.3,3.7,0.4,5
				c0,0.3,0,0.7-0.1,1.1c-0.3,1.5-1.1,3.6-1.1,4.7c0,1.5,0.3,5,0,6.4c-0.3,1.3-1.2,3.7-2.2,5.6C341.6,143.8,338.7,145.3,337.5,145.8
				z"/>
		</g>
		<g>
			<path class="st8" d="M258.3,71.2c0.1,1.8,0.1,4.1-0.1,4.9c-0.3,1.1-1.3,2.7-1.3,4c0,1.3-0.6,4.8-1,5.9c-0.3,1.1-1.1,5.9-1.3,7.2
				c-0.2,1.3-1.6,3.7-1.4,5.1c0.2,1.4-0.3,1.4,0,2.7c0.3,1.3,0.2,4.3,0.5,5.9c0.3,1.6,0.6,8.3-0.3,9.6c-1,1.3-2.6,3.8-3.4,4.6
				c-0.8,0.8-2.7,2.1-3.7,3c-1,1-2.1,2.9-2.9,1.6c-0.8-1.3-2.2-3.4-3.4-4c-1.1-0.6-4-0.5-5,0.6c-1,1.1-0.5,2.7-0.6,4.8
				c-0.2,2.1-0.8,6.9-1.1,8c-0.3,1.1,0.3,2.7-0.2,5.3c-0.5,2.6-1.3,5-1.8,5.8c-0.5,0.8-1.4,2.1-1.4,3.4c0,1.3,0.5,6.7,0,8.2
				c-0.5,1.4-1.1,4.3-1.4,5.8c-0.3,1.4-1,6.7-1.1,7.8c-0.2,1.1-1,5.4-1.3,7c-0.3,1.6-0.8,5.3-1.1,6.6c-0.3,1.3-1,4-1.1,4.8
				c-0.2,0.8-2.6,8-2.4,9.1c0.2,1.1,0.5,3.7-0.2,4.8c-0.6,1.1-1.9,2.9-2.1,4c-0.2,1.1-1.3,6.7-1.6,8c-0.3,1.3-1.3,5-1.6,6.2
				c-0.3,1.3-3.8,14.4-4,15.5c-0.2,1.1-0.6,5.3-1.9,9.1c-1.3,3.8-2.7,8.5-3,10.2c-0.3,1.8-1.6,4.8-2.2,5.9c-0.6,1.1-1.3,3-1.8,4.6
				c-0.5,1.6,0,3.4-1,4.2c-1,0.8-1.8,1.1-1.9,2.4c-0.2,1.3-1,5.8-1.6,7.4c-0.6,1.6-2.6,7.4-3.2,8.5c-0.6,1.1-1.3,4-1.9,5.1
				c-0.6,1.1-3.2,5.8-3.7,7.4c-0.5,1.6-1.3,5.1-2.6,7c-1.3,1.9-2.2,5.1-3.2,6.6c-1,1.4-4.2,9.3-5,11c-0.8,1.8-1,3.8-1.9,5.3
				c-1,1.4-2.9,4.3-3.5,5.3c-0.6,1-3.4,5.1-4.2,6.7c-0.8,1.6-1.3,4.3-2.4,5.4c-1.1,1.1-4.2,4.3-5,5.9c-0.7,1.4-2.4,5.5-3.3,7.2
				c-0.1,0.3-0.3,0.5-0.4,0.7c-0.6,1-2.2,3.7-3.5,5c-1.3,1.3-8.6,9.9-9.8,11.5c-1.1,1.6-3.4,5.4-4.3,6.4c-1,1-5.4,5.8-6.6,7
				c-1.1,1.3-8,7.2-9,8.3c-1,1.1-4.3,4.6-5.3,5.9c-1,1.3-4.5,5.4-5.9,6.6c-0.2,0.1-0.4,0.3-0.7,0.5c-2.3,1.6-7.9,5-9.7,6.9
				c-2.1,2.1-10.2,6.6-11.5,6.9c-1.3,0.3-4.8,3.8-6.4,4.5c-1.6,0.6-6.9,2.4-7.8,2.9c-1,0.5-15,6.6-18.1,7.5c-3,1-13.1,3.7-19.9,5.9
				c-6.7,2.2-19.8,5.9-25.8,6.4C8.4,456.2-2.8,455-2.8,455h-0.1v-467h300.1v0.2c0,0-1.4,4-2.4,5c-1,1-2.2,2.2-2.7,2.9
				c-0.5,0.6-1.6,1.4-2.4,1.9c-0.8,0.5-3.2,2.2-3.5,3.4c-0.3,1.1-0.8,3.4-1.3,4.3c-0.5,1-1.6,5.4-2.1,6.6c-0.5,1.1-1.4,2.2-1.6,3.8
				c-0.2,1.6-0.3,5.9-0.8,7c-0.5,1.1-1.6,3.7-2.1,4.6c-0.5,1-1.3,4.5-2.1,4.8c-0.8,0.3-0.8,0.3-1.9,1c-1.1,0.6-2.6,1.6-1.9,2.2
				c0.6,0.6,1.4,2.4,2.1,3.4c0.6,1,0.5,5,0.3,6.2c-0.2,1.3-2.2,8-3,9c-0.8,1-1.4,1.6-2.1,1.9c-0.6,0.3-0.6,0.2-1.3,1.4
				c-0.6,1.3-1.4,4.5-2.7,5.9c-1.3,1.4-4.3,2.1-5.1,2.7c-0.8,0.6-2.6,1.8-2.4,3C258.2,69.8,258.3,70.5,258.3,71.2z"/>
		</g>
	</g>
</g>
<g id="outline">
	<g id="border">
		<g id="_x32_">
			<g>
				<path class="st9" d="M158.9,362.9c0,0,9.3,7.9,9.8,9s1.1,2.4,0.3,3.4c-0.8,1.1-2.9,2.4-3.7,3.2c-0.8,0.8-5.6,3.2-6.4,4.5
					c-0.8,1.3-7.9,9-9.3,10.1c-1.3,1.1-11.6,10.9-11.4,13.5c0.3,2.6,2.4,12.7,0.5,13.5c-1.9,0.8-4.5,2.4-4.5,2.4l-1.6,4.5l-11.4,8.7
					"/>
			</g>
			<g>
				<path class="st10" d="M331.9,204.2l-3.2,2.6c0,0-5.6-2.4-6.6-2.9s-4.1-0.7-5.2-0.9c-1.1-0.3-6.7-2.8-6.7-2.8l0.3-10.2
					c0,0-2-3.4-2.9-4.4c-0.9-0.9-1.3-1.1-2.4-1.5s-7.4-1.5-8.3-1.5s-2.2,0.5-3.6,0.9c-1.3,0.4-4.9,0.1-5.8,0
					c-0.9-0.1-3.6-1.2-4.5-2.1c-0.9-0.9-5.6-4.8-5.6-4.8s-6.5,4.2-6.9,4.6s-2.1,2.8-2.5,3.6c-0.4,0.8-1.9,2.1-2.9,2.5
					c0,0-3.6,1.1-4.1,1.6c-0.5,0.5-0.8,1.2-1.6,1.5c-0.8,0.3-2.2,0.3-2.6,0.7c-0.4,0.4-4,4.6-4.2,5.7c-0.3,1.1-0.7,3.3-1.1,3.7
					c-0.4,0.4-1.1,1.6-0.8,2.1s0.8,2.1,0.8,2.1s-2.2,2.5-2.2,4.2c0,1.7,0.9,5.8-0.1,6.5s-3.7,1.2-3.7,1.2s-0.3,5.8-0.8,6.5
					s-0.3,2.5-0.5,3.4c-0.3,0.9-0.5,2-0.1,2.2c0.4,0.3,0.9,0.1,1.6,1.1c0.7,0.9,1.2,2.1,1.1,3.2c-0.1,1.1,0.3,4.2-0.7,4.4
					c-0.9,0.1-1.5,0.1-1.5,0.1l-0.4,1.5c0,0-4.9,4.5-5.8,5c-0.9,0.5-3.2,2.1-2.8,3.4s1.6,2.4,1.7,3.6c0.1,1.2,0.3,2.8,0.3,2.8
					s2.5-0.4,2.6,0.9c0.1,1.3-0.7,2.2-0.3,3.7c0.4,1.5,2.2,4.6,1.6,5.2c-0.7,0.5-1.5,2.6-1.2,3.4c0.3,0.8,2.4,2.8,2.4,3.8
					s0.7,7,0.4,7.9c-0.3,0.9-1.5,2.8-1.3,3.6c0.1,0.8,0.5,2,0.4,2.6c-0.1,0.7-0.7,2.9-0.9,3.6s-0.4,1.7-0.4,2.6s0.3,5.8,1.2,6.7
					c0.9,0.9,2.9,1.3,3.4,2.9c0.5,1.6,1.5,6.9,0.7,7c-0.8,0.1-6.6,0.9-7.1,1.2c-0.5,0.3-1.3,1.1-1.6,2c-0.3,0.9-1.1,7.3,0.1,7.3
					c1.2,0,6.6,0.3,7.4,0.3c0.8,0,3.4,0,4.2-0.8c0.8-0.8,3.6-3.7,4.2-3.7s2.8,0.8,3.4,0.9c0.7,0.1,4.5,1.2,5,1.7
					c0.5,0.5,1.9,2,3.3,2.2s7,1.2,7.9,1.3s5.2,1.3,5.2,2.5c0,1.2,0,4.1,0.9,5c0.9,0.9,2.9,3.3,2,4.1c-0.9,0.8-1.9,1.9-3.2,1.5
					s-2.1-0.8-3-0.8c-0.9,0-4.6-0.1-5.4,0.4c-0.8,0.5-3.3,2.8-4.4,2.8s-2-0.5-2.6,0.5c-0.7,1.1-1.6,2.6-2.1,3
					c-0.5,0.4-2.5,0.5-3.2,1.5s-0.9,2.8-1.9,3.3c-0.9,0.5-11.9,7.1-12.4,7.5c-0.5,0.4-3,2.2-3.3,3c-0.3,0.8-1.3,4.2-2,5
					c-0.7,0.8-2.9,1.7-3.2,2.4s-0.9,6-0.9,7.8c0,1.9,0,6.7,0,8.5s-1.1,4.9-1.6,5.6c-0.5,0.7-2.4,3.7-3,4.5c-0.7,0.8-1.5,3.2-2.2,4.2
					s-3,6.4-3,6.4s0.3,3.6,0.8,4.9c0.5,1.3,2,2.5,2.8,3.6s4.8,2.4,6.1,2.2c1.3-0.1,9-2.1,9.9-2.4c0.9-0.3,3.6-0.4,4-0.3
					c0.4,0.1,3.3,0.5,4.1,0.4c0.8-0.1,7.1-0.1,9-0.1s5.4-0.5,6.6-0.8c1.2-0.3,7.1-1.6,8.2-1.6s3.3,0.1,5.7-1.7
					c2.4-1.9,6.1-5.4,6.1-5.4s4.8-2.8,5.8-3.3c1.1-0.5,2.8-3,4.4-4c1.6-0.9,5.8-6.2,6.6-7c0.8-0.8,4.4-1.3,4.4-1.3"/>
			</g>
		</g>
		<g id="district">
		</g>
		<g id="_x31__1_">
			<g>
				<path class="st11" d="M113.5,414.8c0,0,2.2,3.9,3.7,8c1.5,4.1,23.2,74.3,24,76.9c0.9,2.6,7.6,19.5,9.7,23.2
					c2.2,3.7,7.6,17.8,8.2,19.7c0.7,1.9,3.9,12.1,3.9,14.5c0,2.4-1.1,10.8-0.2,12.3c0.9,1.5,6.9,6.3,6.1,8.9
					c-0.9,2.6-2.6,8.2-2.6,10c0,1.7,0.4,4.3,0.4,4.3l11.9,8.2l21.9,63.9c0,0,1.7,3.7,1.5,5.4c-0.2,1.7-0.4,5,0,6.5
					c0.4,1.5,16.5,45.1,16.5,46.4c0,1.3-0.7,4.8-0.4,6.7c0.2,1.9,2.8,5.6,3.2,7.8c0.4,2.2,1.3,6.5,0.9,7.6c-0.4,1.1-1.7,3.7-1.7,3.7
					s2.2,12.3,3.5,14.7c1.3,2.4,3,5.8,3,7.6"/>
			</g>
			<g>
				<path class="st11" d="M258.1,71.3c0,0,9.1-0.8,12.3,0c3.2,0.8,4.4,1.6,5.6,0.8c1.2-0.8,0-1.6,2.8-1.6s12.3-3.2,13.9-0.8
					c1.6,2.4,3.2,8.3,5.6,8.3s9.5-1.2,10.7-1.6c1.2-0.4,2.8-3.2,4-3.6c0,0,4.4-0.4,6-0.4s3.4-0.2,3.4-0.2s0-3.9,1.1-4.4
					s3.2-1.6,3.2-1.6s0.7-6.9,1.2-8.5c0.5-1.6,1.6-4.6,1.2-6.4c-0.4-1.8-0.5-3.5-0.4-4.4c0.2-0.9,1.2-5.8,1.8-6.7
					c0.5-0.9,1.2-1.4,1.6-3c0.4-1.6,0.5-3.2,1.1-3.5c0.5-0.4,1.8-0.9,1.8-0.9s1.2,4.6,2.1,5.5s3,1.8,3,1.8s1.1-1.9,1.8-2.6
					c0.7-0.7,2.3-2.1,3.4-2.1c1.1,0,1.4,0.4,3-0.5s2.5-2.5,3.9-3c1.4-0.5,3.4-0.2,3.7-1.8c0.4-1.6-0.7-5.6,1.4-5.6s6.2,1.1,6.2,1.1
					l9.2-5.8c0,0,0.4-2.6,1.4-4.2c1.1-1.6,2.3-6.2,3.7-6.7s3.7-1.8,4.4-1.9c0.7-0.2,2.8-1.9,4.2-3s2.6-1.8,4.1-3s4.2-3.5,4.8-5.8
					c0.5-2.3-1.6-6-1.6-6.9"/>
			</g>
			<g>
				<path class="st11" d="M394.9,147.5c0,0,3.3-0.4,3.3,1s0,3.9,0.4,5.1s0.2,2,1.8,2.2c1.6,0.2,4.3-0.4,5.5-0.4
					c1.2,0,3.3,0.6,3.3,0.6l-0.4,8.4c0,0,3.9,4.3,4.9,5.9c1,1.6,3.5,6.7,3.9,8.6c0.4,2,1.4,4.7,2.2,4.3c0.8-0.4,3.5-0.8,5.1-1.4
					c1.6-0.6,3.5-1.4,4.3-0.8c0.8,0.6,2.9,2,2.9,2l4.5-3.1c0,0,10.8,8.6,14.9,11c4.1,2.3,13.3,8.8,15.1,10.2
					c1.8,1.4,4.5,4.9,5.9,5.1"/>
			</g>
			<g>
				<path class="st11" d="M311.8,416.2c0,0-2.9,4.4-3.3,5.6c-0.4,1.2-2,5.8-1.6,7c0.4,1.2,1.5,4.2,2.4,5.6c0.9,1.3,6,8.5,7,10.5
					c1.1,2,2.1,8.3,1.5,11.4c-0.7,3-3.7,8.5-3.7,8.5"/>
			</g>
		</g>
	</g>
	<g id="coast">
		<g>
			<path class="st12" d="M297.2-11.7c0,0-1.4,4-2.4,5c-1,1-2.2,2.2-2.7,2.9s-1.6,1.4-2.4,1.9c-0.8,0.5-3.2,2.2-3.5,3.4
				c-0.3,1.1-0.8,3.4-1.3,4.3c-0.5,1-1.6,5.4-2.1,6.6c-0.5,1.1-1.4,2.2-1.6,3.8s-0.3,5.9-0.8,7c-0.5,1.1-1.6,3.7-2.1,4.6
				c-0.5,1-1.3,4.5-2.1,4.8c-0.8,0.3-0.8,0.3-1.9,1c-1.1,0.6-2.6,1.6-1.9,2.2c0.6,0.6,1.4,2.4,2.1,3.4c0.6,1,0.5,5,0.3,6.2
				c-0.2,1.3-2.2,8-3,9c-0.8,1-1.4,1.6-2.1,1.9c-0.6,0.3-0.6,0.2-1.3,1.4c-0.6,1.3-1.4,4.5-2.7,5.9c-1.3,1.4-4.3,2.1-5.1,2.7
				c-0.8,0.6-2.6,1.8-2.4,3c0.2,1.3,0.3,5.6,0,6.7c-0.3,1.1-1.3,2.7-1.3,4s-0.6,4.8-1,5.9c-0.3,1.1-1.1,5.9-1.3,7.2
				c-0.2,1.3-1.6,3.7-1.4,5.1c0.2,1.4-0.3,1.4,0,2.7c0.3,1.3,0.2,4.3,0.5,5.9c0.3,1.6,0.6,8.3-0.3,9.6c-1,1.3-2.6,3.8-3.4,4.6
				c-0.8,0.8-2.7,2.1-3.7,3c-1,1-2.1,2.9-2.9,1.6c-0.8-1.3-2.2-3.4-3.4-4c-1.1-0.6-4-0.5-5,0.6c-1,1.1-0.5,2.7-0.6,4.8
				c-0.2,2.1-0.8,6.9-1.1,8c-0.3,1.1,0.3,2.7-0.2,5.3c-0.5,2.6-1.3,5-1.8,5.8c-0.5,0.8-1.4,2.1-1.4,3.4c0,1.3,0.5,6.7,0,8.2
				c-0.5,1.4-1.1,4.3-1.4,5.8c-0.3,1.4-1,6.7-1.1,7.8c-0.2,1.1-1,5.4-1.3,7c-0.3,1.6-0.8,5.3-1.1,6.6c-0.3,1.3-1,4-1.1,4.8
				s-2.6,8-2.4,9.1c0.2,1.1,0.5,3.7-0.2,4.8c-0.6,1.1-1.9,2.9-2.1,4c-0.2,1.1-1.3,6.7-1.6,8c-0.3,1.3-1.3,5-1.6,6.2
				c-0.3,1.3-3.8,14.4-4,15.5c-0.2,1.1-0.6,5.3-1.9,9.1c-1.3,3.8-2.7,8.5-3,10.2c-0.3,1.8-1.6,4.8-2.2,5.9c-0.6,1.1-1.3,3-1.8,4.6
				c-0.5,1.6,0,3.4-1,4.2c-1,0.8-1.8,1.1-1.9,2.4c-0.2,1.3-1,5.8-1.6,7.4c-0.6,1.6-2.6,7.4-3.2,8.5c-0.6,1.1-1.3,4-1.9,5.1
				c-0.6,1.1-3.2,5.8-3.7,7.4c-0.5,1.6-1.3,5.1-2.6,7c-1.3,1.9-2.2,5.1-3.2,6.6c-1,1.4-4.2,9.3-5,11s-1,3.8-1.9,5.3
				c-1,1.4-2.9,4.3-3.5,5.3c-0.6,1-3.4,5.1-4.2,6.7c-0.8,1.6-1.3,4.3-2.4,5.4c-1.1,1.1-4.2,4.3-5,5.9c-0.8,1.6-3,6.9-3.7,7.8
				c-0.6,1-2.2,3.7-3.5,5c-1.3,1.3-8.6,9.9-9.8,11.5c-1.1,1.6-3.4,5.4-4.3,6.4c-1,1-5.4,5.8-6.6,7c-1.1,1.3-8,7.2-9,8.3
				c-1,1.1-4.3,4.6-5.3,5.9c-1,1.3-4.5,5.4-5.9,6.6c-1.4,1.1-8.3,5.3-10.4,7.4c-2.1,2.1-10.2,6.6-11.5,6.9c-1.3,0.3-4.8,3.8-6.4,4.5
				c-1.6,0.6-6.9,2.4-7.8,2.9c-1,0.5-15,6.6-18.1,7.5c-3,1-13.1,3.7-19.8,5.9c-6.7,2.2-19.8,5.9-25.8,6.4C8.4,456.2-2.8,455-2.8,455
				"/>
		</g>
	</g>
	<g id="lake">
		<g>
			<path class="st12" d="M340.2,109.8c-0.9,0-1.9,0.3-2.6,0.7c-0.8,0.4-2,0.9-2.9,1.5c-0.9,0.5-4.9,3.2-5.7,3.6
				c-0.8,0.4-2,1.9-2.5,2.6c-0.5,0.8-1.3,1.6-1.5,2.8c-0.1,1.2-0.5,3.4,0.1,4.5s2.4,1.7,2.8,2.6c0.4,0.9,1.5,3.2,2,4.4
				c0.5,1.2,1.5,2.8,1.9,3.6c0.4,0.8,1.5,1.6,1.6,2.6s-0.1,3,0.4,4.6c0.5,1.6,2.6,3,3.8,2.5c1.2-0.5,4.1-2,5.2-3.8s2-4.2,2.2-5.6
				c0.3-1.3,0-4.9,0-6.4c0-1.5,1.3-4.5,1.2-5.8c-0.1-1.3-0.8-3.7-0.4-5c0.4-1.3,1.1-2.1,0.4-3c-0.7-0.9-4.1-3-4.1-3.7
				c0-0.7,0.3-1.2-0.3-1.7C341.2,110.2,340.2,109.8,340.2,109.8z"/>
		</g>
		<g>
			<path class="st12" d="M332.2,411c-0.4,1.2-1.4,2.1-2.3,3.2s-1.6,2.6-3.2,3.5c-1.6,0.9-1.2-3.5-1.1-5.1c0.2-1.6,0.7-3.4,1.4-5.3
				c0.7-1.9-0.9-2.6-2.1-3.5c-1.2-0.9-1.2,0.2-1.9,0.7c-0.7,0.5-3.4,6-3.9,7.2c-0.5,1.2-1.1,2.1-2.1,2.5c-1.1,0.4-2.3,1.1-3.4,1.4
				c-1.1,0.4-2.6,0.7-3.7,0.5c-1.1-0.2-0.5-0.9-0.5-2.5c0-1.6,0.5-1.6,1.2-2.6s-0.2-2.1-0.7-3c-0.5-0.9-1.4-4.8-1.8-5.6
				c-0.4-0.9-1.8-5.3-1.9-6.9c-0.2-1.6,2.1-7.4,2.1-8.8c0-1.4-0.7-6.4-0.9-8.1c-0.2-1.8,1.2-6,1.4-7.2c0.2-1.2,1.1-1.6,2.1-2.5
				s-1.1-3.9-1.6-4.9c-0.5-1.1,0.5-4.6,0.9-5.8c0.4-1.2,1.2-2.3,2.3-3.4s3.2-6.5,3.4-7.4c0.2-0.9,0.2-2.8,0.2-4.2
				c0-1.4,0.5-2.6,1.2-3.9c0.7-1.2,3.4-1.8,4.1-2.6c0.7-0.9,2.1-4.4,2.6-5.6c0.5-1.2,2.1-1.4,3.5-1.2c1.4,0.2,2.8,0.4,3.7,0.5
				c0,0,1.8,0,3-0.2c1.2-0.2,1.6-0.4,2.8,0.5s2.5,2.5,1.9,3.7c-0.5,1.2-1.8,6.7-1.9,8.1c-0.2,1.4-0.9,9.2-0.9,10.2s-0.4,2.5-0.5,3.5
				c-0.2,1.1-1.4,4.2-1.6,5.5c-0.2,1.2-0.7,6.9-0.7,8.1s0.5,5.5,0.5,6.5c0,1.1-0.7,3,0,3.9c0.7,0.9,3.5,3.7,2.8,4.6
				s-1.2,1.4-1.2,2.6c0,1.2-0.2,9.7-1.1,10.1c-0.9,0.4-2.5,0.2-2.1,1.2s1.2,2.3,0.7,3c-0.5,0.7-1.2,1.2-1.1,2.5
				c0.2,1.2,0.5,2.8,0.5,3.9S332.6,410,332.2,411z"/>
		</g>
		<g>
			<path class="st12" d="M319.7,415.3c-0.3-0.2-0.7-0.6-1-0.3c-0.3,0.3-0.9,0.7-1.5,0.7c-0.6,0.1-1.5,0.3-1.5,0.5
				c-0.1,0.3-0.7,1.4-1,1.6c-0.3,0.2-1.1,0.4-1.4,0.9c-0.3,0.5-2,4.2-2.2,4.6c-0.2,0.4-0.3,1.3-0.7,1.7c-0.4,0.4-0.7,0.7-1.1,1.2
				s-0.5,1.5,0,1.1s1.3-1.5,1.7-1.9c0.4-0.5,3.5-4.2,4.1-4.8c0.6-0.6,2.1-1.9,2.6-2.2c0.6-0.3,1.5-0.9,1.7-1.3
				C319.7,416.8,320.2,415.6,319.7,415.3z"/>
		</g>
		<g>
			<path class="st12" d="M311,429.6c-0.6,0-2.1-0.3-2.1,0.1s-0.3,1.7,0.2,2.7c0.5,1,5,7.3,5.5,8c0.5,0.7,3.2,5.5,3.6,6.7
				c0.3,1.3,0.6,7.7,0.5,8.7c-0.1,1-0.7,3.2-0.9,3.6s-1,2.9-1,2.9s4,0.3,6.8-1.5l0.1-1.7l4-2.7l-1.5-2.3l-0.7,0.5l-1-1.4l0.9-0.6
				c0,0-0.7-2.8-0.4-3.6l1.3,0.3l3.8-3.6c0,0,0.1-2.5-0.3-2.8c-0.5-0.3-1.7-0.7-1.9-1.1s-0.8-1.1-1.1-1.5c-0.3-0.3-1.2-1.1-1.3-1.5
				c-0.1-0.5-0.3-1-0.3-1l-2.1-0.4c0,0-7.1-4.2-7.8-7.1l-1.9,0.6C313.4,431.2,312.6,429.7,311,429.6z"/>
		</g>
		<g>
			<path class="st12" d="M306.1,432.1c0,0-3.6-0.1-3.9,0.2s-1.1,1.4-1,1.9c0.1,0.5,1.3,1.6,1.1,2.1c-0.1,0.5-0.3,1.6-0.1,1.9
				c0.1,0.3,0.3,0.6,0.3,1.2s0,1.1,0.1,1.5c0.1,0.5,0.9,1.9,0.8,2.6c-0.1,0.7-0.6,3.5-0.1,3.7c0.5,0.2,2.1,0.9,2.4,1.2
				c0.4,0.3,0.9,1.3,0.9,1.8c0,0.5-0.3,1.5-0.1,2.4c0.2,0.9,0.6,1.7,0.6,2.3s0.1,2.3,0.2,2.8c0.1,0.5,1.1,2.9,1.3,3.5
				c0.2,0.6,0.5,2.6,0,3c-0.5,0.5-2.6,2.4-2.8,3c-0.1,0.5-0.5,1.9-0.9,2.4c-0.3,0.5-1.5,1.1-1.7,1.6s-0.3,0.9,0.1,1.3
				c0.4,0.5,0.7,0.9,0.9,1.5c0.2,0.5,0,1.6,0,2.1s0.1,1.7,0,2.1c-0.1,0.4-0.8,2.5-1.1,2.8c-0.3,0.3-0.7,1.1-0.7,1.1l0.6,1.8l8-1.3
				c0,0-0.3-3.7-0.2-4.4s0.3-2.4,0.5-2.8s0.9-4,0.9-5.1c0-1.1-0.2-2.3,0.3-3.1c0.5-0.8,2.6-4.7,3.1-5.7s2.1-5.8,1.9-9.5
				c-0.2-3.7-0.9-6.1-1.5-7c-0.6-0.9-3.4-5.1-3.8-5.6c-0.5-0.5-4.6-6.6-4.6-6.6S306.9,432.3,306.1,432.1z"/>
		</g>
	</g>
	<g id="river">
		<g id="Wadi">
			<g>
				<path class="st13" d="M320.2,462.2c0,0-0.7,1.4-0.7,2.6c0,1.2,0.2,2.6,0.5,3.4c0.4,0.7,1.2,0.9,0,2.5c-1.2,1.6-2.3,2.5-2.5,3.5
					c-0.2,1.1-0.5,4.9-1.4,5.8c-0.9,0.9-1.9,1.4-2.6,2.6c-0.7,1.2-2.1,5.1-3.5,5.1c-1.4,0-2.3,0.4-3,1.1s-6,4.4-6.9,5.6
					c-0.9,1.2-0.9,2.5-1.2,4.1c-0.4,1.6-1.8,4.1-1.4,5.8s1.8,5.1,0.9,6.4c-0.9,1.2-1.8,2.6-2.6,3.7c-0.9,1.1-3.2,3.9-3.7,4.9
					c-0.5,1.1-0.7,4.6-1.1,6.4s-1.2,5.8-2.6,7.9s-2.1,3.5-2.8,4.6c-0.7,1.1-3.5,7.1-3.9,7.9c-0.4,0.9-4.1,8.1-4.8,9.4
					c-0.7,1.2-0.9,2.8-0.7,4.8c0.2,1.9,0,1.9-0.4,3.7c-0.4,1.8-1.6,6.9-1.8,8.1c-0.2,1.2-1.1,5.3-1.6,6.5c-0.5,1.2-1.4,4.4-1.9,5.3
					c-0.5,0.9-1.4,2.3-1.4,3.4c0,1.1-0.5,5.6-1.1,6.4c-0.5,0.7-2.5,3-4.2,4.4c-1.8,1.4-4.8,3.4-5.6,3.9c-0.9,0.5-4.8,1.9-5.5,2.8
					s-4.1,3.7-5.3,4.1c-1.2,0.4-4.2,1.2-6.4,0.4c-2.1-0.9-7.4-2.5-9.4-2.6c-1.9-0.2-4.2-0.5-5.8-0.2s-2.5,0.7-3,2.1
					c-0.5,1.4-0.4,3.4-2.1,3.9c-1.8,0.5-3.4,0.5-3.5,1.8s-0.7,2.8-1.4,3.2c-0.7,0.4-2.6,1.6-2.3,3c0.4,1.4,1.2,2.6,0.2,3.4
					c-1.1,0.7-2.3,2.5-3.2,3.5c-0.9,1.1-5.3,5.6-5.6,6.9c-0.4,1.2,0.2,3.9-1.2,5.1c-1.4,1.2-3.9,3.7-4.9,4.8
					c-1.1,1.1-3.4,6.2-3.2,7.6c0.2,1.4,1.1,10.4,0.5,12.2c-0.5,1.8-0.5,1.8-0.5,1.8s-2.6,3.7-3.4,4.4c-0.7,0.7-2.6,3-3.7,3.9
					c-1.1,0.9-3,2.6-3.2,3.5c-0.2,0.9-0.4,3.4,0.4,5.5c0.7,2.1,1.9,6.4,1.4,7.6s-2.8,6-1.6,7.9c1.2,1.9,1.2,3.4,1.1,4.4
					c-0.2,1.1-0.9,3.5-0.4,5.1c0.5,1.6,1.1,2.3,1.2,4.2c0.2,1.9,0.9,3.4,1.4,4.8s0.9,3.2,1.1,6c0.2,2.8,0.2,4.1,0.2,5.5
					s0.5,4.6,0.5,6c0,1.4,0.2,5.3,0,6.4c-0.2,1.1-0.7,3.9-0.7,4.6c0,0.7-1.1,2.5-0.5,3.4s1.2,3.4,0.5,5.1c-0.7,1.8-1.2,2.6-2.6,3.4
					c-1.4,0.7-6.7,4.6-7.9,6.5"/>
			</g>
		</g>
		<g id="_x31_">
			<g>
				<path class="st14" d="M371.9-11.7c0,0-0.2,2.6-1.8,3.9c-1.6,1.2-3,1.6-3.2,2.3s0.4,1.8-0.7,2.8s-3,2.6-4.4,3.9s-2.1,1.9-4.4,3.5
					c-2.3,1.6-4.1,3.4-4.9,4.6c-0.9,1.2-3,3.4-3.7,4.2c-0.7,0.9-4.6,7.1-4.2,8.3c0.4,1.2,0.5,4.2,0,6c-0.5,1.8-1.8,6.2-1.6,7.2
					c0.2,1.1,1.2,5.1,0.7,6.7c-0.5,1.6-1.2,3.4-1.4,5.5c-0.2,2.1-0.2,4.9,0.5,5.8s2.1,2.8,2.3,4.8s0.2,5.3,0,6.9
					c-0.2,1.6,0,4.8-0.4,6c-0.4,1.2-1.1,3.4-0.5,4.8c0.5,1.4,1.4,3,1.4,4.8c0,1.8-0.2,4.4-0.4,5.8c-0.2,1.4-1.2,5.6-0.5,6.7
					s1.8,2.1,0.9,3.7c-0.9,1.6-0.7,1.9-0.9,3.5c-0.2,1.6,0.5,6.9-0.5,8.1c-1.1,1.2-2.5,2.6-2.5,2.6"/>
			</g>
			<g>
				<path class="st14" d="M342.8,44c0,0-1.2,0.9-2.3,2.1s-4.9,5.6-4.8,7.6c0.2,1.9,2.8,10.4,2.8,12c0,1.6-0.5,4.9,1.1,6.2
					s4.1,2.8,4.1,2.8"/>
			</g>
			<g>
				<path class="st14" d="M335.9,145.8c0,0,0.5,0.4-0.5,1.4s-3.2,1.8-3.2,2.8s0.4,3.4,0.5,4.4s0.4,1.8,0.2,3c-0.2,1.2-0.5,2.6,0,3.9
					c0.5,1.2,1.6,1.6,1.4,2.8c-0.2,1.2,0,2.3,0.2,4.2c0.2,1.9-0.4,2.8,0.4,4.1s2.6,1.8,1.4,3c-1.2,1.2-3,0.9-3,2.3
					c0,1.4,0.7,2.5,0.2,3.9s-1.1,1.1-0.7,2.6s1.4,3.9,1.2,4.9c-0.2,1.1-0.9,2.5-0.7,3.2c0.2,0.7,0.5,2.1,0.2,3.5
					c-0.4,1.4-1.2,5.6-1.2,6.5s-0.4,3.4,0.2,4.4c0.5,1.1,1.4,3.4,1.1,4.4s-0.9,3.4-1.1,4.2s-1.1,4.1-0.4,4.6s2.3,1.6,1.6,2.8
					c-0.7,1.2-1.1,2.3-0.7,3c0.4,0.7,1.8,2.1,1.1,3c-0.7,0.9-1.2,1.4-0.7,2.1c0.5,0.7,1.2,3,1.2,4.1s0,3.2,0.2,4.6
					c0.2,1.4-0.4,4.9-0.7,6.2c-0.4,1.2-1.8,3.7-1.6,4.8c0.2,1.1,1.4,2.5,0.4,3.9c-1.1,1.4-0.9,2.8-1.4,4.2c-0.5,1.4-3,2.1-1.9,4.1
					c1.1,1.9,1.8,3.4,0.5,4.8c-1.2,1.4-1.4,2.6-2.1,3.7s-1.4,3-1.1,4.1s1.9,3.4,1.4,4.2c-0.5,0.9-1.4,2.3-0.7,3.5s2.3,2.3,2.8,3.2
					c0.5,0.9,0.7,0.7,0.5,3.2c-0.2,2.5,0,3,0.2,4.2c0.2,1.2,0.9,2.5-0.5,3.4c-1.4,0.9-2.5,1.8-2.5,3s-0.2,2.1,0.5,3.4
					s2.5,3.7,2.3,4.8c-0.2,1.1-1.1,1.1-0.2,3s3.2,4.8,2.1,5.5c-1.1,0.7-1.9,0.5-1.8,1.8c0.2,1.2,0.7,3,0.7,4.1s-0.5,3,0.4,3.7
					c0.9,0.7,1.9,3,1.4,3.9"/>
			</g>
			<g>
				<path class="st14" d="M309.5,412.1c0,0-1.6,0.7-1.8,1.8s-0.2,1.9-0.2,3s0.5,2.8-0.2,3.7c-0.7,0.9-1.6,0.7-1.8,1.9
					c-0.2,1.2,0.2,4.8-0.5,5.6c-0.7,0.9-1.8,2.6-1.2,3.9"/>
			</g>
			<g>
				<path class="st14" d="M332.9,157.5c0,0,1.1,0.5,2.3,0.7c1.2,0.2,2.8,0.5,3.2-0.5c0.4-1.1,0.9-2.3,1.8-3.5
					c0.9-1.2,4.6-3.4,5.8-3.4s3.5,0.5,4.4,0c0.9-0.5,1.2-2.1,1.8-2.8c0.5-0.7,1.2-1.9,2.6-2.5s8.1-3.4,8.6-4.1c0.5-0.7,2.1-2.5,3-3
					c0.1-0.1,0.3-0.2,0.5-0.3"/>
			</g>
		</g>
	</g>
</g>
<g id="symbol">
	<g id="city_2_">
		<g id="capital_district_1_">
		</g>
		<g id="capital_1_">
		</g>
	</g>
</g>
<g id="letter">
	<g id="city">
		<g id="capital_district">
		</g>
		<g id="capital">
		</g>
	</g>
	<g id="nation">
	</g>
	<g id="blue">
		<g>
			<path class="st15" d="M336,178.5c0,0.2,0,0.4,0,0.6c0.1,0.5,0.4,0.8,1.3,0.8l3.4,0.1l0.1,0.6l-3.5-0.1c-1.2,0-1.7-0.4-1.9-1.4
				c0-0.3,0-0.6,0-0.8L336,178.5z"/>
			<path class="st15" d="M338.5,184.8c-1.1,0.1-2.3-0.5-2.5-1.7c-0.1-0.9,0.5-1.5,1.3-1.6c1.2-0.1,2.4,0.5,2.5,1.7
				C339.9,184.2,339.2,184.7,338.5,184.8z M337.4,182.1c-0.6,0.1-1,0.4-0.9,1c0.1,0.7,1.1,1.1,1.9,1c0.4-0.1,1-0.3,0.9-1
				C339.2,182.4,338.2,182,337.4,182.1z"/>
			<path class="st15" d="M336.4,185.5l2.3,0.3c0.5,0.1,0.9,0.1,1.3,0.1l0,0.5c-0.3,0-0.5,0-0.8,0l0,0c0.5,0.2,0.9,0.5,0.9,1
				c0,0.1,0,0.1,0,0.2l-0.6-0.1c0,0,0-0.1,0-0.2c0-0.5-0.7-1-1.6-1l-1.6-0.2L336.4,185.5z"/>
			<path class="st15" d="M341.7,191.9l-4.1-0.9c-0.4-0.1-0.8-0.2-1.1-0.2l0-0.6l0.7,0.1l0,0c-0.5-0.3-0.8-0.8-0.7-1.3
				c0-0.7,0.6-1.1,1.3-1c1.3,0,2.4,1,2.4,2.3c0,0.2-0.1,0.5-0.1,0.6l1.7,0.4L341.7,191.9z M339.5,190.8c0.1-0.1,0.2-0.3,0.2-0.6
				c0-0.9-0.9-1.6-1.8-1.6c-0.4,0-0.9,0.1-0.9,0.6c0,0.5,0.5,1.1,1.3,1.2L339.5,190.8z"/>
			<path class="st15" d="M336,194.1c0.2,0,0.5,0.1,0.9,0.2l0,0c-0.7-0.5-0.9-1-0.8-1.5c0.1-0.6,0.6-1,1.3-0.9
				c1.2,0.1,2.4,1.2,2.3,2.8c0,0.3-0.1,0.7-0.2,0.9l-1.8-0.6c-0.6-0.2-1.2-0.3-1.6-0.3L336,194.1z M339.1,194.9
				c0-0.1,0.1-0.2,0.1-0.4c0.1-0.9-0.8-1.8-1.8-1.9c-0.4,0-0.8,0.1-0.9,0.5c-0.1,0.5,0.5,1.2,1.5,1.5L339.1,194.9z"/>
			<path class="st15" d="M335.9,195.7l2.5,0.7c0.4,0.1,0.7,0.2,1,0.3l0,0.5l-0.7-0.1l0,0c0.5,0.4,0.7,0.9,0.7,1.4
				c0,0.4-0.3,0.9-1.1,0.8c-0.2,0-0.4-0.1-0.6-0.1l-2-0.6l0.1-0.6l2,0.6c0.1,0,0.3,0.1,0.5,0.1c0.4,0,0.6-0.1,0.7-0.5
				c0-0.4-0.4-1.1-1.3-1.3l-1.7-0.5L335.9,195.7z"/>
			<path class="st15" d="M340.3,202.1c0.1,0.3,0.1,0.7,0.1,1.1c0,0.5-0.1,0.9-0.4,1.2c-0.2,0.2-0.5,0.4-0.8,0.3
				c-0.7,0-1.3-0.6-1.4-1.2l0,0c-0.1,0.3-0.5,0.5-1,0.5c-0.7,0-1.2,0.1-1.4,0.1l0-0.6c0.1,0,0.6-0.1,1.2-0.1c0.7,0,1-0.3,1-0.8
				l0-0.5l-2.2-0.5l0-0.6L340.3,202.1z M338.1,202.3l0,0.5c0,0.8,0.5,1.3,1.1,1.3c0.5,0,0.8-0.4,0.8-0.9c0-0.2,0-0.4,0-0.5
				L338.1,202.3z"/>
			<path class="st15" d="M335.4,205l3.6,0.5l0,0.6l-3.6-0.5L335.4,205z M340,205.6c0.2,0,0.4,0.2,0.4,0.4c0,0.2-0.1,0.4-0.4,0.4
				c-0.2,0-0.4-0.2-0.4-0.4C339.7,205.7,339.8,205.6,340,205.6z"/>
			<path class="st15" d="M339.1,207.3l-2,0.4c-0.4,0.1-0.7,0.1-0.9,0.2l0,0c0.2,0.1,0.4,0.1,0.9,0.3l2.2,1l0,0.7l-3.7-1.8l0-0.6
				l3.5-0.8L339.1,207.3z"/>
			<path class="st15" d="M336.1,212.6c-0.2-0.3-0.3-0.7-0.3-1.2c0-0.9,0.6-1.4,1.4-1.4c1.1-0.1,2.3,0.7,2.4,1.8
				c0,0.7-0.4,1.1-0.9,1.1c-0.9,0-1.2-1-1.3-2.3c-0.2,0-0.5,0-0.7,0.1c-0.3,0.2-0.5,0.5-0.4,0.8c0,0.4,0.2,0.7,0.3,0.9L336.1,212.6z
				 M339,211.8c0-0.6-0.6-1-1.2-1.1c0,1,0.2,1.7,0.8,1.7C338.9,212.4,339,212.1,339,211.8z"/>
			<path class="st15" d="M335.9,213.5l2.3,0.4c0.5,0.1,0.9,0.1,1.3,0.2l0,0.5c-0.3,0-0.5-0.1-0.8-0.1v0c0.5,0.2,0.9,0.6,0.9,1.1
				c0,0.1,0,0.1,0,0.2l-0.6-0.1c0,0,0-0.1,0-0.2c0-0.5-0.7-1-1.5-1.1l-1.6-0.3L335.9,213.5z"/>
		</g>
		<g>
			<g>
				<path class="st15" d="M330.2,455.5c0.3,0.2,0.8,0.4,1.4,0.4c0.7,0,1.4-0.4,1.4-1.2c0-0.5-0.3-0.8-0.9-1.2
					c-0.8-0.4-1.3-1-1.3-1.6c0-1.1,1-1.9,2.2-1.9c0.6,0,1.1,0.2,1.3,0.3l-0.3,0.6c-0.2-0.1-0.6-0.3-1.1-0.3c-0.8,0-1.3,0.5-1.3,1
					c0,0.5,0.3,0.8,1,1.2c0.8,0.4,1.2,0.9,1.2,1.7c0,1.1-0.9,2-2.3,2c-0.6,0-1.3-0.2-1.5-0.4L330.2,455.5z"/>
				<path class="st15" d="M337.7,456.5c0-0.3,0-0.7,0.1-1.2h0c-0.5,1-1.1,1.3-1.8,1.3c-0.8,0-1.3-0.6-1.3-1.5c0-1.6,1.2-3.3,3.2-3.3
					c0.4,0,0.9,0.1,1.2,0.2l-0.5,2.4c-0.2,0.8-0.2,1.6-0.2,2.1H337.7z M338.2,452.5c-0.1,0-0.3-0.1-0.6-0.1c-1.2,0-2.2,1.2-2.2,2.5
					c0,0.5,0.2,1,0.8,1c0.7,0,1.4-0.9,1.7-2.1L338.2,452.5z"/>
				<path class="st15" d="M339.7,456.5l1.3-6.8h0.8l-1.3,6.8H339.7z"/>
				<path class="st15" d="M344,450.6l-0.2,1.2h1.1l-0.1,0.6h-1.1l-0.4,2.2c0,0.3-0.1,0.5-0.1,0.7c0,0.3,0.1,0.4,0.4,0.4
					c0.1,0,0.3,0,0.4,0l0,0.6c-0.1,0.1-0.4,0.1-0.6,0.1c-0.7,0-1-0.4-1-0.9c0-0.3,0-0.5,0.1-0.9l0.5-2.3h-0.7l0.1-0.6h0.7l0.2-1
					L344,450.6z"/>
				<path class="st15" d="M328,459.7c0.4-0.1,0.9-0.1,1.4-0.1c0.6,0,1.2,0.2,1.6,0.5c0.3,0.3,0.5,0.7,0.5,1.2c0,0.7-0.4,1.3-0.8,1.7
					c-0.5,0.4-1.2,0.6-1.9,0.6c-0.2,0-0.5,0-0.7,0l-0.5,2.6h-0.8L328,459.7z M328.2,462.8c0.2,0,0.4,0.1,0.6,0.1
					c1.1,0,1.8-0.7,1.8-1.6c0-0.8-0.5-1.1-1.3-1.1c-0.3,0-0.6,0-0.7,0.1L328.2,462.8z"/>
				<path class="st15" d="M335.9,463.2c0,1.4-1,2.9-2.6,2.9c-1.2,0-1.8-0.9-1.8-1.9c0-1.5,1.1-2.9,2.6-2.9
					C335.3,461.3,335.9,462.2,335.9,463.2z M332.4,464.2c0,0.8,0.4,1.3,1.1,1.3c0.9,0,1.6-1.2,1.6-2.3c0-0.5-0.2-1.3-1.1-1.3
					C333,461.9,332.4,463.1,332.4,464.2z"/>
				<path class="st15" d="M336.5,466l0.6-3.3c0.1-0.5,0.2-1,0.2-1.3h0.7l-0.1,0.9h0c0.4-0.6,1-1,1.7-1c0.6,0,1.2,0.3,1.2,1.3
					c0,0.2,0,0.5-0.1,0.7l-0.5,2.7h-0.8l0.5-2.7c0-0.2,0.1-0.4,0.1-0.6c0-0.5-0.2-0.8-0.7-0.8c-0.6,0-1.4,0.7-1.6,1.8l-0.4,2.2
					H336.5z"/>
				<path class="st15" d="M343.7,460.2l-0.2,1.2h1.1l-0.1,0.6h-1.1l-0.4,2.2c0,0.3-0.1,0.5-0.1,0.7c0,0.3,0.1,0.4,0.4,0.4
					c0.1,0,0.3,0,0.4,0l0,0.6c-0.1,0.1-0.4,0.1-0.6,0.1c-0.7,0-1-0.4-1-0.9c0-0.3,0-0.5,0.1-0.9l0.5-2.3h-0.7l0.1-0.6h0.7l0.2-1
					L343.7,460.2z"/>
				<path class="st15" d="M344.7,465.2c0.2,0.1,0.6,0.3,1,0.3c0.5,0,0.9-0.3,0.9-0.8c0-0.4-0.2-0.6-0.6-0.8
					c-0.5-0.3-0.8-0.7-0.8-1.2c0-0.8,0.7-1.4,1.7-1.4c0.4,0,0.8,0.1,1,0.2l-0.2,0.6c-0.2-0.1-0.5-0.2-0.8-0.2
					c-0.5,0-0.8,0.3-0.8,0.7c0,0.3,0.2,0.5,0.6,0.8c0.5,0.3,0.9,0.7,0.9,1.2c0,1-0.8,1.5-1.8,1.5c-0.5,0-0.9-0.2-1.1-0.3
					L344.7,465.2z"/>
			</g>
		</g>
	</g>
	<g id="district_1_">
	</g>
</g>
<g id="Layer_26">
	<g>
		<path d="M167.7,275.5h-3.8v-0.7h2.3v-3.3h-2.3v-0.7h3.3v4h0.5V275.5z"/>
		<path d="M170.5,273.5l-1,0.3v-2.3h-0.9v-0.7h1.9V273.5z"/>
		<path d="M175.5,275.5h-3.8v-0.7h2.3v-3.3h-2.3v-0.7h3.3v4h0.5V275.5z"/>
		<path d="M181,275.5h-1.2l-1.8-2.6l-0.6,2.6h-1l0.7-3.1h0.6l-1.3-1.6h1.2l1.6,2.2l0.5-2.2h1l-0.6,2.6h-0.6L181,275.5z"/>
		<path d="M187.3,273.5c0,1.4-0.7,2.1-2.2,2.1h-0.8v-0.7h0.9c0.7,0,1.1-0.4,1.1-1.3v-2h-2.7v-1.9h1v1.1h2.6V273.5z"/>
		<path d="M193.1,275.5h-1v-4H190v2.9c0,0.7-0.3,1.1-1,1.1h-0.8v-0.7h0.5c0.3,0,0.4-0.1,0.4-0.3v-2.3l0.5-0.6h-0.9v-0.7h4.5V275.5z"
			/>
	</g>
	<g>
		<path d="M212.7,131.8h-1v-4h-3.1v-0.7h4.1V131.8z M209.6,131.8h-1v-2.6l1-0.3V131.8z"/>
		<path d="M218.3,129.9c0,0.7-0.2,1.1-0.5,1.4c-0.3,0.3-0.9,0.4-1.6,0.4h-2v-0.7h2c0.4,0,0.7-0.1,0.9-0.2s0.2-0.4,0.2-0.9v-2.2h-2.1
			v2h-1v-1.5l0.5-0.5h-0.7v-0.7h4.3V129.9z"/>
		<path d="M221.4,129.8l-1,0.3v-2.3h-0.9v-0.7h1.9V129.8z"/>
		<path d="M227.2,131.8h-1v-4H224v4h-1v-3.4l0.5-0.5h-0.7v-0.7h4.4V131.8z"/>
	</g>
	<g>
		<path d="M241.8,331.5h-4.3v-3.4l0.5-0.5h-0.7v-0.7h2.8c1.2,0,1.7,0.5,1.7,1.7V331.5z M240.8,330.8v-2.4c0-0.6-0.2-0.9-0.8-0.9
			h-1.5v3.3H240.8z"/>
		<path d="M244.8,329.5l-1,0.3v-2.3h-0.9v-0.7h1.9V329.5z"/>
		<path d="M249.7,329.5c0,1.4-0.7,2.1-2.2,2.1h-0.8v-0.7h0.9c0.7,0,1.1-0.4,1.1-1.3v-2H246v-1.9h1v1.1h2.6V329.5z"/>
		<path d="M256.4,329.7c0,1.1-0.7,1.8-1.9,1.8h-2c-0.6,0-1-0.1-1.3-0.4c-0.3-0.3-0.4-0.7-0.4-1.2v-3.1h1v3.1c0,0.3,0.1,0.5,0.2,0.6
			c0.1,0.1,0.3,0.2,0.6,0.2h1l-0.6-0.6v-3.4h1v4h0.4c0.6,0,0.9-0.3,0.9-0.9v-3h1V329.7z"/>
		<path d="M259.5,331.5h-1v-4h-0.9v-0.7h1.9V331.5z"/>
		<path d="M264.1,331.5h-1v-4h-2.5v-0.7h3.5V331.5z"/>
		<path d="M267.2,329.5l-1,0.3v-2.3h-0.9v-0.7h1.9V329.5z"/>
	</g>
	<g>
		<path d="M210.3,434.8c0,1.2-0.6,1.8-1.9,1.8H206v-0.7h1.4l-0.5-0.5l-0.8-3.5h1l0.8,4h0.4c0.6,0,0.9-0.3,0.9-0.9v-3h1V434.8z"/>
		<path d="M215.4,436.6h-3.8v-0.7h2.3v-3.3h-2.3v-0.7h3.3v4h0.5V436.6z"/>
		<path d="M222.1,434.8c0,1.1-0.7,1.8-1.9,1.8h-2c-0.6,0-1-0.1-1.3-0.4c-0.3-0.3-0.4-0.7-0.4-1.2v-3.1h1v3.1c0,0.3,0.1,0.5,0.2,0.6
			c0.1,0.1,0.3,0.2,0.6,0.2h1l-0.6-0.6v-3.4h1v4h0.4c0.6,0,0.9-0.3,0.9-0.9v-3h1V434.8z"/>
		<path d="M228.6,436.6h-1v-4h-2.5v-0.7h3.5V436.6z"/>
		<path d="M234.4,436.6h-1.2l-1.8-2.6l-0.6,2.6h-1l0.7-3.1h0.6l-1.3-1.6h1.2l1.6,2.2l0.5-2.2h1l-0.6,2.6h-0.6L234.4,436.6z"/>
		<path d="M239,436.6h-3.8v-0.7h2.3v-3.3h-2.3v-0.7h3.3v4h0.5V436.6z"/>
	</g>
</g>
<g id="Layer_27">
</g>
</svg>
